#N canvas 2 43 1507 856 12;
#X declare -path counter;
#X declare -path count~;
#X declare -path zerox~;
#X declare -path delta~;
#X declare -path record~;
#X declare -path buffer~;
#X declare -path gate~;
#X declare -path rampsmooth~;
#X declare -path greaterthan~;
#X declare -path sah~;
#X declare -path number~;
#X declare -path cycle~;
#X declare -path lessthan~;
#X declare -path notequals~;
#X declare -path pong~;
#X declare -path delay~;
#X declare -path scale;
#X declare -path poke~;
#X obj 98 903 abs~;
#X obj 65 1011 +~ 1;
#X obj 71 1074 *~ -1;
#X obj 70 777 delta~;
#X obj 57 1111 -~;
#X obj 80 930 *~;
#X obj 208 537 bng 19 250 50 0 empty empty empty 0 -10 0 12 #fcfcfc #000000 #000000;
#X obj 71 1045 gate~ 2;
#X obj 65 984 greaterthan~ 0;
#X obj 70 806 sah~;
#X obj 143 721 zerox~;
#X obj 143 695 delta~;
#N canvas 0 50 450 300 (subpatch) 0;
#X array audio 48000 float 0;
#X coords 0 1 47999 -1 200 100 1;
#X restore 318 235 graph;
#X obj 120 93 bng 19 250 50 0 empty empty empty 0 -10 0 12 #fcfcfc #000000 #000000;
#X obj 273 16 r instanceIsGoofy;
#X obj 120 49 r instanceCount;
#X obj 264 1322 dac~;
#X obj 505 33 declare -path counter;
#X obj 498 10 declare -path count~;
#X obj 504 58 declare -path zerox~;
#X obj 504 80 declare -path delta~;
#X obj 505 100 declare -path record~;
#X obj 508 122 declare -path buffer~;
#X obj 509 147 declare -path gate~;
#X obj 507 171 declare -path rampsmooth~;
#X obj 512 192 declare -path greaterthan~;
#X obj 671 17 declare -path sah~;
#X obj 683 67 declare -path number~;
#X obj 684 92 declare -path cycle~;
#X obj 244 125 cycle~ 440;
#X obj 179 107 adc~;
#X obj 693 118 declare -path lessthan~;
#X msg 184 577 stop;
#X obj 697 144 declare -path notequals~;
#X obj 207 842 send~ pain;
#X obj 208 816 greaterthan~ 47935;
#X obj 10 21 tgl 19 0 empty empty empty 0 -10 0 12 #fcfcfc #000000 #000000 0 1;
#X msg 12 58 \; pd dsp \$1;
#X obj 160 80 tgl 19 0 empty empty empty 0 -10 0 12 #fcfcfc #000000 #000000 0 1;
#X floatatom 760 688 15 0 0 0 - - - 0;
#X obj 760 754 expr 44100 / $f1;
#X obj 760 660 r samplesize;
#X obj 759 819 phasor~;
#X obj 761 877 *~;
#X obj 785 847 r samplesize;
#X obj 584 1261 output~;
#X msg 706 726 0;
#X obj 760 720 f;
#X obj 903 901 number~;
#A saved 0 0 100 -inf inf #2a3434 #ffffff #b6fefd;
#X msg 806 794 0;
#X obj 442 1198 gate~;
#X msg 456 1147 1;
#X msg 440 1168 0;
#X obj 661 652 t b b;
#X obj 648 702 t b b;
#X obj 649 578 sel 0 1;
#X obj 598 476 tgl 19 0 empty empty empty 0 -10 0 12 #fcfcfc #000000 #000000 0 1;
#X obj 361 755 r samplesize;
#X obj 246 931 -~ 1;
#X obj 245 955 *~ -1;
#X obj 298 726 number~;
#A saved 0 0 100 -inf inf #2a3434 #ffffff #b6fefd;
#X obj 57 1138 *~;
#X obj 247 881 greaterthan~ 20000;
#X obj 247 906 rampsmooth~ 120 250;
#X obj 369 857 - 150;
#X obj 1010 660 rampsmooth~ 120 120;
#X obj 1010 628 *~;
#X obj 999 598 sig~;
#X obj 1038 601 sig~ 1;
#X obj 1039 403 vsl 19 162 0 127 0 0 empty empty empty 0 -9 0 12 #fcfcfc #000000 #000000 0 0;
#X obj 1039 573 scale 0 127 -5 5;
#X obj 649 542 t \$1 \$1;
#X obj 523 743 line~;
#X obj 522 773 equals~;
#X obj 521 802 edge~;
#X msg 524 716 \$1 1.5;
#X obj 435 1237 *~;
#X obj 584 786 - 1;
#X obj 518 827 spigot;
#X obj 1071 1218 abs~;
#X obj 1038 1326 +~ 1;
#X obj 1044 1389 *~ -1;
#X obj 1043 1158 delta~;
#X obj 1030 1426 -~;
#X obj 1053 1245 *~;
#X obj 1044 1360 gate~ 2;
#X obj 1038 1299 greaterthan~ 0;
#X obj 1043 1187 sah~;
#X obj 1116 1102 zerox~;
#X obj 1116 1076 delta~;
#X msg 1091 526 1;
#X obj 1203 1232 number~;
#A saved 0 0 100 -inf inf #2a3434 #ffffff #b6fefd;
#X obj 805 1109 tgl 19 0 empty empty empty 0 -10 0 12 #fcfcfc #000000 #000000 0 1;
#X obj 942 978 number~;
#A saved 0 0 100 -inf inf #2a3434 #ffffff #b6fefd;
#X obj 1218 1090 edge~;
#X obj 1211 1131 bng 19 250 50 0 empty empty empty 0 -10 0 12 #fcfcfc #000000 #000000;
#X obj 1246 1139 bng 19 250 50 0 empty empty empty 0 -10 0 12 #fcfcfc #000000 #000000;
#X floatatom 398 797 9 0 0 0 - - - 0;
#X obj 1216 1395 number~;
#A saved 0 0 100 -inf inf #2a3434 #ffffff #b6fefd;
#X obj 1205 1338 number~;
#A saved 0 0 100 -inf inf #2a3434 #ffffff #b6fefd;
#X obj 1068 1429 number~;
#A saved 0 0 100 -inf inf #2a3434 #ffffff #b6fefd;
#X obj 148 826 sah~;
#N canvas 0 65 1512 945 (subpatch) 0;
#X array example 20947 float 0;
#X coords 0 1 20946 -1 200 100 1;
#X restore 761 236 graph;
#X obj 178 181 tabwrite~ \$0array;
#X obj 57 160 pipe 1000;
#X obj 45 97 bng 19 250 50 0 empty empty empty 0 -10 0 12 #fcfcfc #000000 #000000;
#X obj 1054 1271 rampsmooth~ 0 15;
#X obj 95 291 gate~;
#X obj 96 323 number~;
#A saved 0 0 100 -inf inf #2a3434 #ffffff #b6fefd;
#X obj 65 231 tgl 19 0 empty empty empty 0 -10 0 12 #fcfcfc #000000 #000000 0 1;
#X obj 3 1695 pack \$1 \$0;
#X msg 3 1716 \; \$2array resize \$1;
#X obj 3 1642 bng 19 250 50 0 empty empty empty 0 -10 0 12 #fcfcfc #000000 #000000;
#X obj 340 1593 number~;
#A saved 0 0 100 -inf inf #2a3434 #ffffff #b6fefd;
#X msg 344 1530 stop;
#N canvas 0 65 1512 945 (subpatch) 0;
#X array \$0array 441088 float 0;
#X coords 0 1 441087 -1 200 100 1;
#X restore 559 1414 graph;
#X obj 725 1564 delta~;
#X obj 694 1657 sah~;
#X obj 374 1643 number~;
#A saved 0 0 100 -inf inf #2a3434 #ffffff #b6fefd;
#X obj 246 1600 gate~;
#X obj 344 1555 count~ 0 441000 0 0;
#X obj 155 1639 bng 19 250 50 0 empty empty empty 0 -10 0 12 #fcfcfc #000000 #000000;
#X obj 154 1670 pack \$0;
#X msg 152 1715 \; \$1array const 0;
#X obj 876 1650 number~;
#A saved 0 0 100 -inf inf #2a3434 #ffffff #b6fefd;
#X obj 725 1590 lessthan~ 1;
#X obj 144 611 count~ 0 441000 0 0;
#X obj 81 541 receive~ pain;
#X obj 684 1631 delay~ 1 1;
#X obj 278 1553 adc~;
#X obj 764 1777 s samplesize;
#X obj 309 1427 tgl 19 0 empty empty empty 0 -10 0 12 #fcfcfc #000000 #000000 0 1;
#X obj 297 1469 sel 0 1;
#X obj 320 1496 t b b;
#X msg 3 1675 441088;
#X msg 1068 392 76.2;
#X obj 1005 1129 tabread4~ \$0array;
#X obj 32 748 tabread4~ \$0array;
#X obj 56 1249 number~;
#A saved 0 0 100 -inf inf #2a3434 #ffffff #b6fefd;
#X obj 119 1188 gate~;
#X obj 119 1157 greaterthan~ 0;
#X obj 81 954 rampsmooth~ 0 80;
#X obj 901 804 equals~ 0;
#X obj 903 832 send~ stop;
#X obj 1595 2282 vsl 19 162 0 127 0 0 empty empty empty 0 -9 0 12 #fcfcfc #000000 #000000 0 0;
#X obj 1631 2278 vsl 19 162 0 127 0 0 empty empty empty 0 -9 0 12 #fcfcfc #000000 #000000 0 0;
#X obj 1383 1799 scale 0 127 0 1;
#X obj 1420 1833 scale 0 127 0 1;
#X floatatom 1361 1868 5 0 0 0 - - - 0;
#X floatatom 1429 1867 5 0 0 0 - - - 0;
#X obj 1606 1691 r samplesize;
#X floatatom 1607 1776 10 0 0 0 - - - 0;
#X obj 1584 1917 *;
#X floatatom 1632 1945 13 0 0 0 - - - 0;
#X obj 1570 1887 t b i;
#X obj 1726 1944 start;
#X obj 1041 747 number~;
#A saved 0 0 100 -inf inf #2a3434 #ffffff #b6fefd;
#X obj 2343 2743 abs~;
#X obj 2309 2852 +~ 1;
#X obj 2315 2915 *~ -1;
#X obj 2314 2684 delta~;
#X obj 2301 2952 -~;
#X obj 2324 2771 *~;
#X obj 2315 2886 gate~ 2;
#X obj 2309 2825 greaterthan~ 0;
#X obj 2321 2713 sah~;
#X obj 2493 2756 number~;
#A saved 0 0 100 -inf inf #2a3434 #ffffff #b6fefd;
#X obj 2487 2921 number~;
#A saved 0 0 100 -inf inf #2a3434 #ffffff #b6fefd;
#X obj 2483 2885 number~;
#A saved 0 0 100 -inf inf #2a3434 #ffffff #b6fefd;
#X obj 2339 2955 number~;
#A saved 0 0 100 -inf inf #2a3434 #ffffff #b6fefd;
#X obj 2276 2655 tabread4~ \$0array;
#X obj 2281 3007 dac~;
#X obj 2325 2797 rampsmooth~ 0 18;
#X obj 2455 2302 sah~;
#X obj 2373 2344 number~;
#A saved 0 0 100 -inf inf #2a3434 #ffffff #b6fefd;
#X obj 2518 2330 send~ test;
#X obj 2503 1897 bng 19 250 50 0 empty empty empty 0 -10 0 12 #fcfcfc #000000 #000000;
#X obj 2557 2194 count~;
#X obj 2557 2223 number~;
#A saved 0 0 100 -inf inf #2a3434 #ffffff #b6fefd;
#X obj 2270 2232 gate~;
#X obj 2381 1942 bng 19 250 50 0 empty empty empty 0 -10 0 12 #fcfcfc #000000 #000000;
#X obj 2180 2187 gate~;
#X obj 2252 2196 gate~;
#X obj 2104 2239 number~;
#A saved 0 0 100 -inf inf #2a3434 #ffffff #b6fefd;
#X obj 2167 2315 number~;
#A saved 0 0 100 -inf inf #2a3434 #ffffff #b6fefd;
#X obj 2298 2049 bng 19 250 50 0 empty empty empty 0 -10 0 12 #fcfcfc #000000 #000000;
#X obj 2177 2154 bng 19 250 50 0 empty empty empty 0 -10 0 12 #fcfcfc #000000 #000000;
#X msg 2276 2102 0;
#X msg 2308 2102 1;
#X msg 2276 2127 1;
#X msg 2308 2127 0;
#X obj 2498 1930 t b b;
#X obj 2440 1937 t b b;
#X obj 2306 2153 receive~ test;
#X obj 2489 2381 +~;
#X obj 2493 2413 number~;
#A saved 0 0 100 -inf inf #2a3434 #ffffff #b6fefd;
#X obj 2776 2123 sig~ 1;
#X obj 2743 1900 vsl 19 162 0 127 0 0 empty empty empty 0 -9 0 12 #fcfcfc #000000 #000000 0 0;
#X msg 2814 1933 1;
#X obj 2745 2096 t b f;
#X obj 2781 2183 number~;
#A saved 0 0 100 -inf inf #2a3434 #ffffff #b6fefd;
#X obj 2611 2253 *~;
#X obj 2777 2147 rampsmooth~ 20 20;
#X obj 2675 2325 number~;
#A saved 0 0 100 -inf inf #2a3434 #ffffff #b6fefd;
#X obj 2743 2069 scale 0 127 -5 5;
#X obj 2575 2527 number~;
#A saved 0 0 100 -inf inf #2a3434 #ffffff #b6fefd;
#X obj 2556 1844 tgl 19 0 empty empty empty 0 -10 0 12 #fcfcfc #000000 #000000 0 1;
#X obj 2590 1980 sig~;
#X obj 2232 2378 number~;
#A saved 0 0 100 -inf inf #2a3434 #ffffff #b6fefd;
#X obj 2651 2276 delay~ 1 1;
#X obj 2557 1887 sel 0 1;
#X obj 2596 2129 *~ -1;
#X obj 2615 2179 number~;
#A saved 0 0 100 -inf inf #2a3434 #ffffff #b6fefd;
#X obj 2426 2675 zerox~;
#X obj 2426 2649 delta~;
#X obj 2551 1776 r toggleLoop;
#X obj 2883 2070 scale 0 1 -5 5;
#X floatatom 2901 2113 5 0 0 0 - - - 0;
#X obj 2664 1777 r floatFader;
#X obj 707 172 declare -path pong~;
#X obj 320 1390 r toggleRecord;
#X obj 2349 3004 number~;
#A saved 0 0 100 -inf inf #2a3434 #ffffff #b6fefd;
#X obj 804 27 declare -path delay~;
#X obj 857 51 declare -path scale;
#X obj 866 97 declare -path poke~;
#X obj 246 1668 poke~ \$0array 1;
#X obj 54 1561 loadbang;
#X obj 732 1747 snapshot~;
#X obj 674 1709 edge~;
#X floatatom 738 1815 12 0 0 0 - - - 0;
#X obj 862 1710 number~;
#A saved 0 0 100 -inf inf #2a3434 #ffffff #b6fefd;
#X obj 1583 1956 t b f;
#X obj 1300 1538 r floatLoopStart;
#X obj 1443 1563 r floatLoopEnd;
#X obj 1811 1928 *;
#X floatatom 1859 1956 13 0 0 0 - - - 0;
#X obj 1797 1898 t b i;
#X obj 1747 2174 +;
#X floatatom 1764 1781 10 0 0 0 - - - 0;
#X obj 1955 1957 length;
#X obj 1825 1983 clip 100 1e+06;
#X obj 1557 1734 t b i;
#X obj 1753 2054 -;
#X obj 1755 2096 *;
#X obj 1520 2002 t b f;
#X floatatom 1762 2218 13 0 0 0 - - - 0;
#X obj 1795 2130 clip 10 1e+06;
#X obj 1490 1656 loadbang;
#X msg 1514 1690 1;
#X msg 1479 1690 0;
#X obj 2124 2439 sig~;
#X obj 2572 2500 pong~ 1 0 441000;
#X obj 2423 2489 +~;
#X obj 2421 2516 number~;
#A saved 0 0 100 -inf inf #2a3434 #ffffff #b6fefd;
#X obj 2021 1948 -;
#X floatatom 2052 1976 13 0 0 0 - - - 0;
#X obj 1995 1997 *;
#X floatatom 2002 2119 13 0 0 0 - - - 0;
#X obj 2035 2031 clip 10 1e+06;
#X obj 2145 2477 sah~;
#X obj 2167 2426 delta~;
#X obj 2169 2447 lessthan~ 0;
#X obj 2130 2528 number~;
#A saved 0 0 100 -inf inf #2a3434 #ffffff #b6fefd;
#X obj 2803 2397 plusequals~;
#X obj 2792 2438 number~;
#A saved 0 0 100 -inf inf #2a3434 #ffffff #b6fefd;
#X obj 2804 2317 *~;
#X obj 2869 2329 delta~;
#X obj 2869 2355 lessthan~ 0;
#X obj 2704 2444 +~;
#X obj 2754 2482 number~;
#A saved 0 0 100 -inf inf #2a3434 #ffffff #b6fefd;
#X obj 2495 1991 click~ 1;
#X obj 2565 2382 number~;
#A saved 0 0 100 -inf inf #2a3434 #ffffff #b6fefd;
#X obj 2610 2467 r samplesize;
#X obj 1949 2447 sig~;
#X obj 1970 2485 sah~;
#X obj 1992 2434 delta~;
#X obj 1994 2455 lessthan~ 0;
#X obj 1968 2539 number~;
#A saved 0 0 100 -inf inf #2a3434 #ffffff #b6fefd;
#X connect 0 0 5 1;
#X connect 1 0 7 0;
#X connect 2 0 4 1;
#X connect 3 0 9 0;
#X connect 4 0 61 0;
#X connect 5 0 141 0;
#X connect 6 0 126 0;
#X connect 7 0 2 0;
#X connect 7 1 4 1;
#X connect 8 0 1 0;
#X connect 9 0 0 0;
#X connect 9 0 8 0;
#X connect 10 1 9 1;
#X connect 10 1 5 0;
#X connect 10 1 101 1;
#X connect 11 0 10 0;
#X connect 13 0 103 0;
#X connect 14 0 6 0;
#X connect 15 0 38 0;
#X connect 30 0 107 1;
#X connect 30 0 103 0;
#X connect 32 0 126 0;
#X connect 35 0 34 0;
#X connect 36 0 37 0;
#X connect 39 0 47 1;
#X connect 40 0 67 0;
#X connect 41 0 39 0;
#X connect 42 0 43 0;
#X connect 42 0 48 0;
#X connect 42 0 142 0;
#X connect 43 0 89 0;
#X connect 43 0 93 0;
#X connect 43 0 136 0;
#X connect 44 0 43 1;
#X connect 46 0 40 0;
#X connect 47 0 40 0;
#X connect 49 0 42 1;
#X connect 50 0 76 1;
#X connect 51 0 50 0;
#X connect 52 0 50 0;
#X connect 53 0 47 0;
#X connect 53 1 51 0;
#X connect 54 0 46 0;
#X connect 54 0 49 0;
#X connect 54 1 52 0;
#X connect 55 1 53 0;
#X connect 56 0 71 0;
#X connect 57 0 64 0;
#X connect 57 0 97 0;
#X connect 57 0 35 1;
#X connect 58 0 59 0;
#X connect 59 0 61 1;
#X connect 61 0 138 0;
#X connect 61 0 139 1;
#X connect 62 0 63 0;
#X connect 63 0 58 0;
#X connect 64 0 62 1;
#X connect 65 0 42 0;
#X connect 65 0 156 0;
#X connect 66 0 65 0;
#X connect 67 0 66 0;
#X connect 68 0 66 1;
#X connect 69 0 70 0;
#X connect 70 0 68 0;
#X connect 71 0 75 0;
#X connect 71 0 55 0;
#X connect 71 1 77 0;
#X connect 71 1 73 1;
#X connect 72 0 76 0;
#X connect 72 0 73 0;
#X connect 73 0 74 0;
#X connect 74 0 78 0;
#X connect 75 0 72 0;
#X connect 77 0 78 1;
#X connect 78 0 54 0;
#X connect 79 0 84 1;
#X connect 80 0 85 0;
#X connect 81 0 83 1;
#X connect 81 0 100 0;
#X connect 82 0 87 0;
#X connect 83 0 50 1;
#X connect 84 0 106 0;
#X connect 85 0 81 0;
#X connect 85 1 83 1;
#X connect 85 1 98 0;
#X connect 86 0 80 0;
#X connect 86 0 99 0;
#X connect 87 0 79 0;
#X connect 87 0 86 0;
#X connect 87 0 91 0;
#X connect 88 1 87 1;
#X connect 88 1 84 0;
#X connect 89 0 88 0;
#X connect 89 0 94 0;
#X connect 90 0 68 0;
#X connect 90 0 135 0;
#X connect 92 0 71 0;
#X connect 94 0 95 0;
#X connect 94 1 96 0;
#X connect 104 0 13 0;
#X connect 105 0 104 0;
#X connect 106 0 85 1;
#X connect 107 0 108 0;
#X connect 109 0 107 0;
#X connect 110 0 111 0;
#X connect 112 0 134 0;
#X connect 114 0 120 0;
#X connect 116 0 124 0;
#X connect 116 0 125 0;
#X connect 117 0 227 0;
#X connect 117 0 230 0;
#X connect 119 0 118 0;
#X connect 119 0 225 0;
#X connect 120 0 113 0;
#X connect 120 0 116 0;
#X connect 120 0 119 0;
#X connect 120 0 128 0;
#X connect 120 0 225 1;
#X connect 120 0 228 0;
#X connect 121 0 122 0;
#X connect 122 0 123 0;
#X connect 125 0 117 1;
#X connect 126 0 60 0;
#X connect 126 0 35 0;
#X connect 126 0 62 0;
#X connect 126 0 11 0;
#X connect 126 0 140 0;
#X connect 126 0 137 0;
#X connect 127 0 126 0;
#X connect 128 0 117 0;
#X connect 129 0 119 1;
#X connect 131 0 132 0;
#X connect 132 0 114 0;
#X connect 132 1 133 0;
#X connect 133 0 120 0;
#X connect 133 1 122 0;
#X connect 134 0 110 0;
#X connect 135 0 69 0;
#X connect 136 0 82 0;
#X connect 136 0 83 0;
#X connect 137 0 3 0;
#X connect 137 0 4 0;
#X connect 137 0 101 0;
#X connect 140 0 139 0;
#X connect 141 0 7 1;
#X connect 142 0 143 0;
#X connect 144 0 146 0;
#X connect 145 0 147 0;
#X connect 146 0 148 0;
#X connect 147 0 149 0;
#X connect 148 0 152 0;
#X connect 149 0 234 0;
#X connect 149 0 244 0;
#X connect 150 0 241 0;
#X connect 151 0 154 0;
#X connect 152 0 153 0;
#X connect 152 0 231 0;
#X connect 152 0 273 0;
#X connect 154 0 152 0;
#X connect 154 1 152 1;
#X connect 157 0 162 1;
#X connect 158 0 163 0;
#X connect 159 0 161 1;
#X connect 159 0 169 0;
#X connect 160 0 165 0;
#X connect 161 0 171 0;
#X connect 161 0 171 1;
#X connect 161 0 221 0;
#X connect 162 0 172 0;
#X connect 163 0 159 0;
#X connect 163 1 161 1;
#X connect 163 1 167 0;
#X connect 164 0 158 0;
#X connect 164 0 168 0;
#X connect 165 0 157 0;
#X connect 165 0 164 0;
#X connect 165 0 166 0;
#X connect 170 0 160 0;
#X connect 170 0 161 0;
#X connect 172 0 163 1;
#X connect 173 0 174 0;
#X connect 173 0 194 0;
#X connect 173 0 175 0;
#X connect 176 0 191 0;
#X connect 177 0 178 0;
#X connect 177 0 201 0;
#X connect 177 0 266 0;
#X connect 179 0 173 0;
#X connect 179 0 208 0;
#X connect 180 0 192 0;
#X connect 181 0 183 0;
#X connect 182 0 184 0;
#X connect 182 0 179 1;
#X connect 185 0 187 0;
#X connect 185 0 188 0;
#X connect 186 0 189 0;
#X connect 186 0 190 0;
#X connect 187 0 181 0;
#X connect 188 0 182 0;
#X connect 189 0 181 0;
#X connect 190 0 182 0;
#X connect 191 0 270 0;
#X connect 191 1 185 0;
#X connect 192 0 270 0;
#X connect 192 1 186 0;
#X connect 193 0 181 1;
#X connect 193 0 182 1;
#X connect 194 0 195 0;
#X connect 194 0 251 0;
#X connect 194 0 260 0;
#X connect 194 0 275 0;
#X connect 196 0 202 0;
#X connect 197 0 204 0;
#X connect 198 0 199 0;
#X connect 199 0 191 0;
#X connect 199 1 196 0;
#X connect 201 0 194 1;
#X connect 201 0 209 0;
#X connect 201 0 268 0;
#X connect 201 0 271 0;
#X connect 202 0 200 0;
#X connect 202 0 201 1;
#X connect 204 0 199 0;
#X connect 206 0 207 0;
#X connect 206 0 210 0;
#X connect 207 0 177 0;
#X connect 209 0 203 0;
#X connect 209 0 182 1;
#X connect 209 0 265 0;
#X connect 210 0 192 0;
#X connect 210 1 191 0;
#X connect 211 0 212 0;
#X connect 211 0 177 0;
#X connect 213 1 165 1;
#X connect 213 1 162 0;
#X connect 214 0 213 0;
#X connect 215 0 206 0;
#X connect 216 0 217 0;
#X connect 216 0 199 0;
#X connect 218 0 216 0;
#X connect 220 0 131 0;
#X connect 226 0 134 0;
#X connect 227 0 130 0;
#X connect 227 0 229 0;
#X connect 228 1 227 0;
#X connect 231 0 151 0;
#X connect 231 0 237 0;
#X connect 231 0 242 0;
#X connect 231 0 254 0;
#X connect 231 1 237 1;
#X connect 231 1 242 1;
#X connect 231 1 254 1;
#X connect 232 0 148 0;
#X connect 233 0 149 0;
#X connect 234 0 235 0;
#X connect 234 0 240 0;
#X connect 234 0 250 0;
#X connect 236 0 234 0;
#X connect 236 1 234 1;
#X connect 236 1 242 0;
#X connect 236 1 254 0;
#X connect 237 0 245 0;
#X connect 238 0 236 0;
#X connect 241 0 149 0;
#X connect 241 0 148 0;
#X connect 241 1 151 0;
#X connect 241 1 238 0;
#X connect 242 0 243 0;
#X connect 243 0 246 0;
#X connect 244 0 243 0;
#X connect 244 0 256 0;
#X connect 244 1 243 1;
#X connect 244 1 256 1;
#X connect 246 0 237 0;
#X connect 247 0 248 0;
#X connect 247 0 249 0;
#X connect 248 0 149 0;
#X connect 249 0 148 0;
#X connect 250 0 259 0;
#X connect 251 0 205 0;
#X connect 251 0 170 0;
#X connect 251 0 214 0;
#X connect 252 0 253 0;
#X connect 254 0 255 0;
#X connect 254 0 256 0;
#X connect 256 0 258 0;
#X connect 258 0 257 0;
#X connect 258 0 177 1;
#X connect 259 0 262 0;
#X connect 259 0 252 0;
#X connect 259 0 251 2;
#X connect 260 0 261 0;
#X connect 261 0 259 1;
#X connect 263 0 264 0;
#X connect 263 0 268 1;
#X connect 265 0 263 0;
#X connect 266 0 267 0;
#X connect 267 0 263 1;
#X connect 268 0 269 0;
#X connect 268 0 252 1;
#X connect 270 0 173 1;
#X connect 270 0 179 0;
#X connect 270 0 211 0;
#X connect 270 0 165 1;
#X connect 270 0 162 0;
#X connect 270 0 265 1;
#X connect 272 0 251 2;
#X connect 273 0 274 0;
#X connect 274 0 277 0;
#X connect 274 0 251 1;
#X connect 275 0 276 0;
#X connect 276 0 274 1;
