#N canvas 421 69 1507 856 12;
#X declare -path counter;
#X declare -path count~;
#X declare -path zerox~;
#X declare -path delta~;
#X declare -path record~;
#X declare -path buffer~;
#X declare -path gate~;
#X declare -path rampsmooth~;
#X declare -path greaterthan~;
#X declare -path sah~;
#X declare -path number~;
#X declare -path cycle~;
#X declare -path lessthan~;
#X declare -path notequals~;
#X declare -path pong~;
#X declare -path delay~;
#X declare -path scale;
#X declare -path poke~;
#X obj 502 -164 declare -path counter;
#X obj 495 -187 declare -path count~;
#X obj 501 -139 declare -path zerox~;
#X obj 501 -117 declare -path delta~;
#X obj 502 -97 declare -path record~;
#X obj 505 -75 declare -path buffer~;
#X obj 506 -50 declare -path gate~;
#X obj 504 -26 declare -path rampsmooth~;
#X obj 509 -5 declare -path greaterthan~;
#X obj 668 -180 declare -path sah~;
#X obj 680 -130 declare -path number~;
#X obj 681 -105 declare -path cycle~;
#X obj 690 -79 declare -path lessthan~;
#X obj 694 -53 declare -path notequals~;
#X obj 7 -176 tgl 19 0 empty empty empty 0 -10 0 12 #fcfcfc #000000 #000000 0 1;
#X msg 9 -139 \; pd dsp \$1;
#X obj 66 719 pack \$1 \$0;
#X msg 66 740 \; \$2array resize \$1;
#X obj 66 666 bng 19 250 50 0 empty empty empty 0 -10 0 12 #fcfcfc #000000 #000000;
#X obj 403 617 number~;
#A saved 0 0 100 -inf inf #2a3434 #ffffff #b6fefd;
#X msg 407 554 stop;
#N canvas 0 65 1512 945 (subpatch) 0;
#X array \$0array 441088 float 0;
#X coords 0 1 441087 -1 200 100 1;
#X restore 622 438 graph;
#X obj 616 577 delta~;
#X obj 585 670 sah~;
#X obj 437 667 number~;
#A saved 0 0 100 -inf inf #2a3434 #ffffff #b6fefd;
#X obj 309 624 gate~;
#X obj 407 579 count~ 0 441000 0 0;
#X obj 218 663 bng 19 250 50 0 empty empty empty 0 -10 0 12 #fcfcfc #000000 #000000;
#X obj 217 694 pack \$0;
#X msg 215 739 \; \$1array const 0;
#X obj 616 603 lessthan~ 1;
#X obj 575 644 delay~ 1 1;
#X obj 341 577 adc~;
#X obj 632 790 s samplesize;
#X obj 360 467 tgl 19 0 empty empty empty 0 -10 0 12 #fcfcfc #000000 #000000 0 1;
#X obj 360 493 sel 0 1;
#X obj 383 520 t b b;
#X msg 66 699 441088;
#X obj 1539 637 vsl 19 162 0 127 0 0 empty empty empty 0 -9 0 12 #fcfcfc #000000 #000000 0 0;
#X obj 1575 633 vsl 19 162 0 127 0 0 empty empty empty 0 -9 0 12 #fcfcfc #000000 #000000 0 0;
#X obj 1131 81 scale 0 127 0 1;
#X obj 1168 115 scale 0 127 0 1;
#X floatatom 1109 150 5 0 0 0 - - - 0;
#X floatatom 1171 150 5 0 0 0 - - - 0;
#X obj 1285 84 r samplesize;
#X floatatom 1135 195 10 0 0 0 - - - 0;
#X obj 1149 253 *;
#X floatatom 1214 281 13 0 0 0 - - - 0;
#X obj 1135 223 t b i;
#X obj 2116 840 abs~;
#X obj 2082 949 +~ 1;
#X obj 2088 1012 *~ -1;
#X obj 2087 781 delta~;
#X obj 2074 1049 -~;
#X obj 2097 868 *~;
#X obj 2088 983 gate~ 2;
#X obj 2082 922 greaterthan~ 0;
#X obj 2094 810 sah~;
#X obj 2049 752 tabread4~ \$0array;
#X obj 2054 1104 dac~;
#X obj 2098 894 rampsmooth~ 0 18;
#X obj 2112 422 sah~;
#X obj 1259 815 count~;
#X obj 2113 391 gate~;
#X obj 2144 365 gate~;
#X msg 2109 328 1;
#X msg 2141 328 0;
#X obj 2442 135 t b b;
#X obj 2250 107 t b b;
#X obj 2228 644 +~;
#X obj 2495 25 sig~ 1;
#X obj 2462 -198 vsl 19 162 0 127 0 0 empty empty empty 0 -9 0 12 #fcfcfc #000000 #000000 0 0;
#X msg 2516 -115 1;
#X obj 2464 -2 t b f;
#X obj 2500 85 number~;
#A saved 0 0 100 -inf inf #2a3434 #ffffff #b6fefd;
#X obj 2384 257 *~;
#X obj 2496 49 rampsmooth~ 20 20;
#X obj 2462 -29 scale 0 127 -5 5;
#X obj 2230 706 number~;
#A saved 0 0 100 -inf inf #2a3434 #ffffff #b6fefd;
#X obj 2249 28 tgl 19 0 empty empty empty 0 -10 0 12 #fcfcfc #000000 #000000 0 1;
#X obj 2384 189 sig~;
#X obj 2384 288 delay~ 1 1;
#X obj 2250 71 sel 0 1;
#X obj 2446 187 *~ -1;
#X obj 2199 772 zerox~;
#X obj 2199 746 delta~;
#X obj 2250 1 r toggleLoop;
#X obj 2357 -101 r floatFader;
#X obj 704 -25 declare -path pong~;
#X obj 360 432 r toggleRecord;
#X obj 801 -170 declare -path delay~;
#X obj 854 -146 declare -path scale;
#X obj 863 -100 declare -path poke~;
#X obj 309 692 poke~ \$0array 1;
#X obj 117 585 loadbang;
#X obj 623 760 snapshot~;
#X obj 584 729 edge~;
#X floatatom 629 828 12 0 0 0 - - - 0;
#X obj 1048 -180 r floatLoopStart;
#X obj 1191 -155 r floatLoopEnd;
#X obj 1286 110 t b i;
#X obj 1238 -62 loadbang;
#X msg 1262 -28 1;
#X msg 1227 -28 0;
#X obj 1802 587 sig~;
#X obj 2227 679 pong~ 1 0 441000;
#X obj 2562 717 +~;
#X obj 2534 737 number~;
#A saved 0 0 100 -inf inf #2a3434 #ffffff #b6fefd;
#X obj 1823 625 sah~;
#X obj 1845 544 delta~;
#X obj 1847 565 lessthan~ 0;
#X obj 1823 657 number~;
#A saved 0 0 100 -inf inf #2a3434 #ffffff #b6fefd;
#X obj 2531 690 plusequals~;
#X obj 2530 667 *~;
#X obj 2558 639 delta~;
#X obj 2558 665 lessthan~ 0;
#X obj 2532 717 +~;
#X obj 2444 163 click~ 1;
#X obj 2336 653 r samplesize;
#X obj 1644 596 sig~;
#X obj 1665 634 sah~;
#X obj 1687 583 delta~;
#X obj 1689 604 lessthan~ 0;
#X obj 1664 660 number~;
#A saved 0 0 100 -inf inf #2a3434 #ffffff #b6fefd;
#X obj 1153 331 -;
#X obj 1156 300 t b i;
#X obj 1154 372 t b i;
#X obj 1155 414 *;
#X floatatom 1242 469 13 0 0 0 - - - 0;
#X obj 1159 446 clip 10 1e+06;
#X obj 1162 539 +;
#X obj 1150 502 t b i;
#X floatatom 1243 562 13 0 0 0 - - - 0;
#X obj 1213 298 loopStart;
#X obj 1244 487 loopLength;
#X obj 1243 580 loopLength + start AKA totalLength - start (loopEndPosition), f 22;
#X obj 1662 681 loopStart;
#X obj 1824 676 loopLength + start AKA totalLength - start (loopEndPosition), f 22;
#X obj 2649 637 should accumulate previous signal more accurately than send~/receive~...however trouble removing click artifacts, f 16;
#X obj 2138 451 send~ accumulatedCount;
#X obj 2175 335 receive~ accumulatedCount;
#X obj 1929 288 number~;
#A saved 0 0 100 -inf inf #2a3434 #ffffff #b6fefd;
#X obj 2197 1080 number~;
#A saved 0 0 100 -inf inf #2a3434 #ffffff #b6fefd;
#X obj 2098 524 number~;
#A saved 0 0 100 -inf inf #2a3434 #ffffff #b6fefd;
#X obj 1701 852 greaterthan~;
#X obj 1678 959 number~;
#A saved 0 0 100 -inf inf #2a3434 #ffffff #b6fefd;
#X obj 1306 887 +~;
#X obj 1326 857 sig~;
#X obj 1345 920 number~;
#A saved 0 0 100 -inf inf #2a3434 #ffffff #b6fefd;
#X obj 1530 884 greaterthan~;
#X obj 1519 929 send~ countReset;
#X obj 1857 591 receive~ countReset;
#X obj 2238 932 number~;
#A saved 0 0 100 -inf inf #2a3434 #ffffff #b6fefd;
#X connect 14 0 15 0;
#X connect 16 0 17 0;
#X connect 18 0 37 0;
#X connect 20 0 26 0;
#X connect 22 0 30 0;
#X connect 23 0 95 0;
#X connect 25 0 24 0;
#X connect 25 0 93 0;
#X connect 26 0 19 0;
#X connect 26 0 22 0;
#X connect 26 0 25 0;
#X connect 26 0 31 0;
#X connect 26 0 93 1;
#X connect 26 0 96 0;
#X connect 27 0 28 0;
#X connect 28 0 29 0;
#X connect 30 0 23 1;
#X connect 31 0 23 0;
#X connect 32 0 25 1;
#X connect 34 0 35 0;
#X connect 35 0 20 0;
#X connect 35 1 36 0;
#X connect 36 0 26 0;
#X connect 36 1 28 0;
#X connect 37 0 16 0;
#X connect 38 0 40 0;
#X connect 39 0 41 0;
#X connect 40 0 42 0;
#X connect 41 0 43 0;
#X connect 42 0 46 0;
#X connect 43 0 127 0;
#X connect 44 0 100 0;
#X connect 45 0 48 0;
#X connect 46 0 47 0;
#X connect 46 0 119 0;
#X connect 46 0 125 0;
#X connect 46 0 130 0;
#X connect 46 0 147 0;
#X connect 48 0 46 0;
#X connect 48 1 46 1;
#X connect 49 0 54 1;
#X connect 49 0 152 0;
#X connect 50 0 55 0;
#X connect 51 0 53 1;
#X connect 52 0 57 0;
#X connect 53 0 59 0;
#X connect 53 0 59 1;
#X connect 53 0 142 0;
#X connect 54 0 60 0;
#X connect 55 0 51 0;
#X connect 55 1 53 1;
#X connect 56 0 50 0;
#X connect 57 0 49 0;
#X connect 57 0 56 0;
#X connect 58 0 52 0;
#X connect 58 0 53 0;
#X connect 60 0 55 1;
#X connect 61 0 69 0;
#X connect 61 0 139 0;
#X connect 62 0 75 0;
#X connect 62 0 114 0;
#X connect 62 0 141 0;
#X connect 62 0 146 0;
#X connect 63 0 61 0;
#X connect 64 0 63 1;
#X connect 65 0 64 0;
#X connect 66 0 64 0;
#X connect 67 0 117 0;
#X connect 67 1 65 0;
#X connect 68 0 117 0;
#X connect 68 1 66 0;
#X connect 69 0 109 0;
#X connect 69 0 105 0;
#X connect 69 0 121 0;
#X connect 69 0 143 0;
#X connect 70 0 76 0;
#X connect 71 0 77 0;
#X connect 72 0 73 0;
#X connect 73 0 67 0;
#X connect 73 1 70 0;
#X connect 75 0 69 1;
#X connect 75 0 81 0;
#X connect 75 0 116 0;
#X connect 76 0 74 0;
#X connect 76 0 75 1;
#X connect 77 0 73 0;
#X connect 79 0 80 0;
#X connect 79 0 82 0;
#X connect 80 0 62 0;
#X connect 81 0 64 1;
#X connect 81 0 113 0;
#X connect 82 0 68 0;
#X connect 82 1 67 0;
#X connect 83 0 62 0;
#X connect 84 1 57 1;
#X connect 84 1 54 0;
#X connect 85 0 84 0;
#X connect 86 0 79 0;
#X connect 87 0 73 0;
#X connect 89 0 34 0;
#X connect 94 0 37 0;
#X connect 95 0 33 0;
#X connect 95 0 97 0;
#X connect 96 1 95 0;
#X connect 98 0 42 0;
#X connect 99 0 43 0;
#X connect 100 0 43 0;
#X connect 100 0 42 0;
#X connect 100 1 45 0;
#X connect 100 1 124 0;
#X connect 101 0 102 0;
#X connect 101 0 103 0;
#X connect 102 0 43 0;
#X connect 103 0 42 0;
#X connect 104 0 108 0;
#X connect 104 0 144 1;
#X connect 105 0 78 0;
#X connect 105 0 58 0;
#X connect 105 0 85 0;
#X connect 105 0 144 0;
#X connect 106 0 107 0;
#X connect 108 0 111 0;
#X connect 108 0 106 0;
#X connect 108 0 105 2;
#X connect 108 0 149 1;
#X connect 109 0 110 0;
#X connect 110 0 108 1;
#X connect 112 0 116 1;
#X connect 113 0 112 0;
#X connect 114 0 115 0;
#X connect 115 0 112 1;
#X connect 116 0 106 1;
#X connect 117 0 61 1;
#X connect 117 0 63 0;
#X connect 117 0 83 0;
#X connect 117 0 57 1;
#X connect 117 0 54 0;
#X connect 117 0 113 1;
#X connect 118 0 105 2;
#X connect 119 0 120 0;
#X connect 120 0 123 0;
#X connect 120 0 105 1;
#X connect 121 0 122 0;
#X connect 122 0 120 1;
#X connect 124 0 126 0;
#X connect 125 0 124 0;
#X connect 125 1 124 1;
#X connect 126 0 127 0;
#X connect 126 1 127 1;
#X connect 127 0 129 0;
#X connect 129 0 131 0;
#X connect 129 0 128 0;
#X connect 129 0 62 1;
#X connect 130 0 132 0;
#X connect 130 0 104 0;
#X connect 131 0 130 0;
#X connect 131 1 130 1;
#X connect 140 0 64 1;
#X connect 144 0 145 0;
#X connect 146 0 148 0;
#X connect 146 0 149 0;
#X connect 147 0 146 1;
#X connect 149 0 150 0;
#X connect 151 0 108 1;
#X connect 151 0 57 1;
#X connect 151 0 54 0;
