#N canvas 5 43 1507 856 12;
#X declare -path counter;
#X declare -path count~;
#X declare -path zerox~;
#X declare -path delta~;
#X declare -path record~;
#X declare -path buffer~;
#X declare -path gate~;
#X declare -path rampsmooth~;
#X declare -path greaterthan~;
#X declare -path sah~;
#X declare -path number~;
#X declare -path cycle~;
#X declare -path lessthan~;
#X declare -path notequals~;
#X declare -path pong~;
#X obj 98 903 abs~;
#X obj 65 1011 +~ 1;
#X obj 71 1074 *~ -1;
#X obj 70 777 delta~;
#X obj 57 1111 -~;
#X obj 80 930 *~;
#X obj 208 537 bng 19 250 50 0 empty empty empty 0 -10 0 12 #fcfcfc #000000 #000000;
#X obj 71 1045 gate~ 2;
#X obj 65 984 greaterthan~ 0;
#X obj 70 806 sah~;
#X obj 143 721 zerox~;
#X obj 143 695 delta~;
#N canvas 0 50 450 300 (subpatch) 0;
#X array audio 48000 float 0;
#X coords 0 1 47999 -1 200 100 1;
#X restore 318 235 graph;
#X obj 120 93 bng 19 250 50 0 empty empty empty 0 -10 0 12 #fcfcfc #000000 #000000;
#X obj 273 16 r instanceIsGoofy;
#X obj 120 49 r instanceCount;
#X obj 264 1322 dac~;
#X obj 505 33 declare -path counter;
#X obj 498 10 declare -path count~;
#X obj 504 58 declare -path zerox~;
#X obj 504 80 declare -path delta~;
#X obj 505 100 declare -path record~;
#X obj 508 122 declare -path buffer~;
#X obj 509 147 declare -path gate~;
#X obj 507 171 declare -path rampsmooth~;
#X obj 512 192 declare -path greaterthan~;
#X obj 671 17 declare -path sah~;
#X obj 683 67 declare -path number~;
#X obj 684 92 declare -path cycle~;
#X obj 244 125 cycle~ 440;
#X obj 179 107 adc~;
#X obj 693 118 declare -path lessthan~;
#X msg 184 577 stop;
#X obj 697 144 declare -path notequals~;
#X obj 207 842 send~ pain;
#X obj 208 816 greaterthan~ 47935;
#X obj 10 21 tgl 19 0 empty empty empty 0 -10 0 12 #fcfcfc #000000 #000000 0 1;
#X msg 12 58 \; pd dsp \$1;
#X obj 1248 185 adc~ 1;
#X obj 1249 247 delwrite~ example 60000;
#X obj 1392 583 vd~ example;
#X obj 1392 642 *~;
#X msg 1440 602 1;
#X msg 1506 625 0;
#X obj 1532 130 bng 15 250 50 0 empty \$0startrec record-start 17 7 0 10 #fcfcfc #000000 #000000;
#X obj 1442 130 bng 15 250 50 0 empty \$0stoprec record-stop 17 7 0 10 #fcfcfc #000000 #000000;
#X floatatom 1559 1063 5 0 0 2 recording_length(ms) - - 0;
#X obj 1559 1184 pack \$1 \$0;
#X obj 1479 296 t b b;
#X obj 1440 190 t b b b;
#X obj 1459 709 bng 15 250 50 0 empty empty empty 17 7 0 10 #fcfcfc #000000 #000000;
#X obj 1392 750 tabwrite~ \$0array;
#X msg 1559 1205 \; \$2array resize \$1;
#X floatatom 1392 536 5 0 0 0 - - - 0;
#X obj 1392 483 spigot;
#X obj 1479 468 tgl 15 0 empty empty empty 17 7 0 10 #fcfcfc #000000 #000000 0 1;
#X obj 1392 559 sig~;
#X msg 1479 438 1;
#X msg 1539 451 0;
#X obj 1479 388 t b b;
#X obj 1559 1029 f;
#X obj 1393 402 loadbang;
#X obj 1437 531 + 1;
#X obj 1392 514 1;
#X msg 1526 497 1;
#X obj 1392 452 metro 1;
#X text 1249 265 Maximal length is a minute;
#X obj 1606 1145 s samplesize;
#X obj 1611 732 t b b;
#X obj 1611 709 bng 15 250 50 0 empty \$0clear clear 17 7 0 10 #fcfcfc #000000 #000000;
#X obj 1611 772 pack \$1 \$0;
#X obj 1731 749 pack \$0;
#X msg 1611 752 6;
#X msg 1746 793 \; \$1array const 0;
#X msg 1611 793 \; \$2array resize \$1;
#X text 1610 829 clears the array and resizes it to a small value;
#X msg 1312 186 1;
#X msg 1312 207 0;
#X obj 1248 224 *~;
#X text 1117 452 This patch counts the recording time;
#X text 1000 303 When [start] is pressed the audio signal is held up in the delay line. with every update from [metro] the signal is held for another millisecond. when the recording is stopped \, the counter stops at the current time. The array is resized to the amount of samples that is needed for that amount of time and the audio is played back into it., f 61;
#X obj 1559 1084 - 1;
#X text 1586 1084 because we start 1 ms ahead;
#X text 1676 1213 array is resized;
#X obj 1448 82 sel 0 1;
#X obj 160 80 tgl 19 0 empty empty empty 0 -10 0 12 #fcfcfc #000000 #000000 0 1;
#X floatatom 760 688 15 0 0 0 - - - 0;
#X obj 760 754 expr 44100 / $f1;
#X obj 760 660 r samplesize;
#X obj 759 819 phasor~;
#X obj 761 877 *~;
#X obj 785 847 r samplesize;
#X obj 584 1261 output~;
#X msg 706 726 0;
#X obj 760 720 f;
#X obj 1559 1110 * 44.1;
#X obj 903 901 number~;
#A saved 0 0 100 -inf inf #2a3434 #ffffff #b6fefd;
#X msg 806 794 0;
#X obj 442 1198 gate~;
#X msg 456 1147 1;
#X msg 440 1168 0;
#X obj 661 652 t b b;
#X obj 648 702 t b b;
#X obj 649 578 sel 0 1;
#X obj 598 476 tgl 19 0 empty empty empty 0 -10 0 12 #fcfcfc #000000 #000000 0 1;
#X obj 361 755 r samplesize;
#X obj 246 931 -~ 1;
#X obj 245 955 *~ -1;
#X obj 298 726 number~;
#A saved 0 0 100 -inf inf #2a3434 #ffffff #b6fefd;
#X obj 57 1138 *~;
#X obj 247 881 greaterthan~ 20000;
#X obj 247 906 rampsmooth~ 120 250;
#X obj 369 857 - 150;
#X obj 1010 660 rampsmooth~ 120 120;
#X obj 1010 628 *~;
#X obj 999 598 sig~;
#X obj 1038 601 sig~ 1;
#X obj 1039 403 vsl 19 162 0 127 0 0 empty empty empty 0 -9 0 12 #fcfcfc #000000 #000000 0 0;
#X obj 1039 573 scale 0 127 -5 5;
#X floatatom 2287 515 15 0 0 0 - - - 0;
#X obj 2287 581 expr 44100 / $f1;
#X obj 2287 487 r samplesize;
#X obj 2286 646 phasor~;
#X obj 2286 710 *~;
#X obj 2301 675 r samplesize;
#X obj 2286 737 tabread4~ \$0array;
#X obj 2285 834 output~;
#X obj 2285 807 *~ 4;
#X msg 2233 553 0;
#X obj 2287 547 f;
#X obj 2233 460 bng 15 250 50 0 empty empty play 17 7 0 10 #fcfcfc #000000 #000000;
#X obj 2226 518 bng 15 250 50 0 empty empty pause 17 7 0 10 #fcfcfc #000000 #000000;
#X obj 2490 752 number~;
#A saved 0 0 100 -inf inf #2a3434 #ffffff #b6fefd;
#X msg 2333 621 0;
#X obj 2228 765 gate~;
#X obj 2314 769 number~;
#A saved 0 0 100 -inf inf #2a3434 #ffffff #b6fefd;
#X obj 2103 826 number~;
#A saved 0 0 100 -inf inf #2a3434 #ffffff #b6fefd;
#X msg 2228 673 1;
#X msg 2212 694 0;
#X obj 2188 479 t b b;
#X obj 2175 529 t b b;
#X obj 2176 405 sel 0 1;
#X obj 2175 384 tgl 19 0 empty empty empty 0 -10 0 12 #fcfcfc #000000 #000000 0 1;
#X obj 2537 487 rampsmooth~ 120 120;
#X obj 2537 455 *~;
#X obj 2526 425 sig~;
#X obj 2565 428 sig~ 1;
#X obj 2566 230 vsl 19 162 0 127 0 0 empty empty empty 0 -9 0 12 #fcfcfc #000000 #000000 0 0;
#X obj 2566 400 scale 0 127 -5 5;
#X obj 649 542 t \$1 \$1;
#X obj 523 743 line~;
#X obj 522 773 equals~;
#X obj 521 802 edge~;
#X msg 524 716 \$1 1.5;
#X obj 435 1237 *~;
#X obj 584 786 - 1;
#X obj 518 827 spigot;
#X floatatom 2991 523 15 0 0 0 - - - 0;
#X obj 2991 589 expr 44100 / $f1;
#X obj 2991 495 r samplesize;
#X obj 2990 654 phasor~;
#X obj 2990 718 *~;
#X obj 3005 683 r samplesize;
#X obj 2990 745 tabread4~ \$0array;
#X obj 2989 842 output~;
#X obj 2989 815 *~ 4;
#X msg 2937 561 0;
#X obj 2991 555 f;
#X obj 2937 468 bng 15 250 50 0 empty empty play 17 7 0 10 #fcfcfc #000000 #000000;
#X obj 2930 526 bng 15 250 50 0 empty empty pause 17 7 0 10 #fcfcfc #000000 #000000;
#X obj 3194 760 number~;
#A saved 0 0 100 -inf inf #2a3434 #ffffff #b6fefd;
#X msg 3037 629 0;
#X obj 2924 766 gate~;
#X obj 3018 777 number~;
#A saved 0 0 100 -inf inf #2a3434 #ffffff #b6fefd;
#X obj 2807 834 number~;
#A saved 0 0 100 -inf inf #2a3434 #ffffff #b6fefd;
#X msg 2932 681 1;
#X msg 2916 702 0;
#X obj 2892 487 t b b;
#X obj 2879 537 t b b;
#X obj 2880 413 sel 0 1;
#X obj 2870 315 tgl 19 0 empty empty empty 0 -10 0 12 #fcfcfc #000000 #000000 0 1;
#X obj 3241 495 rampsmooth~ 120 120;
#X obj 3241 463 *~;
#X obj 3230 433 sig~;
#X obj 3269 436 sig~ 1;
#X obj 3270 238 vsl 19 162 0 127 0 0 empty empty empty 0 -9 0 12 #fcfcfc #000000 #000000 0 0;
#X obj 3270 408 scale 0 127 -5 5;
#X obj 2880 377 t \$1 \$1;
#X obj 2754 578 line~;
#X obj 2753 608 equals~;
#X obj 2752 637 edge~;
#X msg 2755 551 \$1 1.5;
#X obj 2923 881 *~;
#X obj 2815 621 - 1;
#X obj 2749 662 spigot;
#X obj 1071 1218 abs~;
#X obj 1038 1326 +~ 1;
#X obj 1044 1389 *~ -1;
#X obj 1043 1158 delta~;
#X obj 1030 1426 -~;
#X obj 1053 1245 *~;
#X obj 1044 1360 gate~ 2;
#X obj 1038 1299 greaterthan~ 0;
#X obj 1043 1187 sah~;
#X obj 1116 1102 zerox~;
#X obj 1116 1076 delta~;
#X msg 1091 526 1;
#X obj 1203 1232 number~;
#A saved 0 0 100 -inf inf #2a3434 #ffffff #b6fefd;
#X obj 805 1109 tgl 19 0 empty empty empty 0 -10 0 12 #fcfcfc #000000 #000000 0 1;
#X obj 942 978 number~;
#A saved 0 0 100 -inf inf #2a3434 #ffffff #b6fefd;
#X obj 1218 1090 edge~;
#X obj 1211 1131 bng 19 250 50 0 empty empty empty 0 -10 0 12 #fcfcfc #000000 #000000;
#X obj 1246 1139 bng 19 250 50 0 empty empty empty 0 -10 0 12 #fcfcfc #000000 #000000;
#X floatatom 398 797 9 0 0 0 - - - 0;
#X obj 1216 1395 number~;
#A saved 0 0 100 -inf inf #2a3434 #ffffff #b6fefd;
#X obj 1205 1338 number~;
#A saved 0 0 100 -inf inf #2a3434 #ffffff #b6fefd;
#X obj 1068 1429 number~;
#A saved 0 0 100 -inf inf #2a3434 #ffffff #b6fefd;
#X obj 148 826 sah~;
#X obj 1247 725 number~;
#A saved 0 0 100 -inf inf #2a3434 #ffffff #b6fefd;
#N canvas 0 65 1512 945 (subpatch) 0;
#X array example 20947 float 0;
#X coords 0 1 20946 -1 200 100 1;
#X restore 761 236 graph;
#X obj 178 181 tabwrite~ \$0array;
#X obj 57 160 pipe 1000;
#X obj 45 97 bng 19 250 50 0 empty empty empty 0 -10 0 12 #fcfcfc #000000 #000000;
#X obj 1054 1271 rampsmooth~ 0 15;
#X obj 95 291 gate~;
#X obj 96 323 number~;
#A saved 0 0 100 -inf inf #2a3434 #ffffff #b6fefd;
#X obj 65 231 tgl 19 0 empty empty empty 0 -10 0 12 #fcfcfc #000000 #000000 0 1;
#X obj 3 1695 pack \$1 \$0;
#X msg 3 1716 \; \$2array resize \$1;
#X obj 3 1642 bng 19 250 50 0 empty empty empty 0 -10 0 12 #fcfcfc #000000 #000000;
#X obj 340 1593 number~;
#A saved 0 0 100 -inf inf #2a3434 #ffffff #b6fefd;
#X msg 344 1530 stop;
#N canvas 0 65 1512 945 (subpatch) 0;
#X array \$0array 441088 float 0;
#X coords 0 1 441087 -1 200 100 1;
#X restore 559 1414 graph;
#X obj 242 1643 poke~ \$0array;
#X obj 725 1564 delta~;
#X obj 694 1657 sah~;
#X obj 698 1696 number~;
#A saved 0 0 100 -inf inf #2a3434 #ffffff #b6fefd;
#X obj 374 1643 number~;
#A saved 0 0 100 -inf inf #2a3434 #ffffff #b6fefd;
#X obj 246 1600 gate~;
#X obj 344 1555 count~ 0 441000 0 0;
#X obj 400 1514 receive~ counterOff;
#X obj 512 1648 send~ counterOff;
#X obj 513 1622 greaterthan~ 44100;
#X obj 155 1639 bng 19 250 50 0 empty empty empty 0 -10 0 12 #fcfcfc #000000 #000000;
#X obj 154 1670 pack \$0;
#X msg 152 1715 \; \$1array const 0;
#X obj 876 1650 number~;
#A saved 0 0 100 -inf inf #2a3434 #ffffff #b6fefd;
#X obj 725 1590 lessthan~ 1;
#X obj 144 611 count~ 0 441000 0 0;
#X obj 81 541 receive~ pain;
#X obj 684 1631 delay~ 1 1;
#X obj 515 1745 tabread \$0array;
#X floatatom 519 1783 5 0 0 0 - - - 0;
#X msg 516 1700 20351;
#X obj 278 1553 adc~;
#X obj 793 1731 s samplesize;
#X obj 309 1427 tgl 19 0 empty empty empty 0 -10 0 12 #fcfcfc #000000 #000000 0 1;
#X obj 297 1469 sel 0 1;
#X obj 320 1496 t b b;
#X msg 3 1675 441088;
#X msg 1068 392 76.2;
#X obj 1005 1129 tabread4~ \$0array;
#X obj 32 748 tabread4~ \$0array;
#X obj 56 1249 number~;
#A saved 0 0 100 -inf inf #2a3434 #ffffff #b6fefd;
#X obj 119 1188 gate~;
#X obj 119 1157 greaterthan~ 0;
#X obj 81 954 rampsmooth~ 0 80;
#X obj 901 804 equals~ 0;
#X obj 903 832 send~ stop;
#X obj 911 556 receive~ stop;
#X obj 1160 1592 vsl 19 162 0 127 0 0 empty empty empty 0 -9 0 12 #fcfcfc #000000 #000000 0 0;
#X obj 1204 1596 vsl 19 162 0 127 0 0 empty empty empty 0 -9 0 12 #fcfcfc #000000 #000000 0 0;
#X obj 1163 1765 scale 0 127 0 1;
#X obj 1197 1801 scale 0 127 0 1;
#X floatatom 1141 1834 5 0 0 0 - - - 0;
#X floatatom 1198 1831 5 0 0 0 - - - 0;
#X obj 1395 1546 r samplesize;
#X floatatom 1396 1580 10 0 0 0 - - - 0;
#X obj 1369 1772 *;
#X floatatom 1417 1800 13 0 0 0 - - - 0;
#X obj 1351 1802 -;
#X floatatom 1407 1866 13 0 0 0 - - - 0;
#X obj 1355 1745 t b i;
#X obj 1511 1799 start;
#X obj 1353 1846 *;
#X obj 1352 1825 t b f;
#X obj 1501 1864 loop length;
#X obj 1041 747 number~;
#A saved 0 0 100 -inf inf #2a3434 #ffffff #b6fefd;
#X obj 1478 1932 expr 44100 / $f1;
#X obj 1477 1998 phasor~;
#X obj 1479 2055 *~;
#X msg 1524 1972 0;
#X obj 2342 2657 abs~;
#X obj 2309 2765 +~ 1;
#X obj 2315 2828 *~ -1;
#X obj 2314 2597 delta~;
#X obj 2301 2865 -~;
#X obj 2324 2684 *~;
#X obj 2315 2799 gate~ 2;
#X obj 2309 2738 greaterthan~ 0;
#X obj 2321 2626 sah~;
#X obj 2493 2669 number~;
#A saved 0 0 100 -inf inf #2a3434 #ffffff #b6fefd;
#X obj 2487 2834 number~;
#A saved 0 0 100 -inf inf #2a3434 #ffffff #b6fefd;
#X obj 2483 2798 number~;
#A saved 0 0 100 -inf inf #2a3434 #ffffff #b6fefd;
#X obj 2339 2868 number~;
#A saved 0 0 100 -inf inf #2a3434 #ffffff #b6fefd;
#X obj 2276 2568 tabread4~ \$0array;
#X obj 1821 2022 sig~ 1;
#X obj 1825 1797 vsl 19 162 0 127 0 0 empty empty empty 0 -9 0 12 #fcfcfc #000000 #000000 0 0;
#X obj 1825 1966 scale 0 127 -5 5;
#X obj 1824 2082 number~;
#A saved 0 0 100 -inf inf #2a3434 #ffffff #b6fefd;
#X obj 1769 2192 sah~;
#X obj 1781 2221 number~;
#A saved 0 0 100 -inf inf #2a3434 #ffffff #b6fefd;
#X obj 1792 2097 change~;
#X obj 1792 2122 notequals~ 0;
#X obj 1551 2070 number~;
#A saved 0 0 100 -inf inf #2a3434 #ffffff #b6fefd;
#X obj 2281 2920 dac~;
#X obj 1480 2095 *~;
#X obj 1090 2190 count~;
#X obj 1058 2111 bng 19 250 50 0 empty empty empty 0 -10 0 12 #fcfcfc #000000 #000000;
#X obj 1183 2084 -~ 1;
#X obj 1183 2112 *~ -1;
#X obj 1180 2055 zerox~;
#X obj 1239 2036 click~;
#X obj 1248 2005 bng 19 250 50 0 empty empty empty 0 -10 0 12 #fcfcfc #000000 #000000;
#X obj 1086 2318 *~;
#X obj 1110 2293 rampsmooth~ 180 180;
#X obj 2325 2710 rampsmooth~ 0 18;
#X obj 1281 2083 click~;
#X obj 1101 2125 -~ 1;
#X obj 1101 2153 *~ -1;
#X obj 1763 2164 delay~ 1 1;
#X msg 1896 1830 1;
#X obj 1901 2000 t b f;
#X obj 2455 2302 sah~;
#X obj 2373 2344 number~;
#A saved 0 0 100 -inf inf #2a3434 #ffffff #b6fefd;
#X obj 2518 2330 send~ test;
#X obj 2506 2108 -~ 1;
#X obj 2506 2136 *~ -1;
#X obj 2495 1991 click~;
#X obj 2503 1897 bng 19 250 50 0 empty empty empty 0 -10 0 12 #fcfcfc #000000 #000000;
#X obj 2557 2194 count~;
#X obj 2557 2223 number~;
#A saved 0 0 100 -inf inf #2a3434 #ffffff #b6fefd;
#X obj 2270 2232 gate~;
#X obj 2381 1942 bng 19 250 50 0 empty empty empty 0 -10 0 12 #fcfcfc #000000 #000000;
#X obj 2180 2187 gate~;
#X obj 2252 2196 gate~;
#X obj 2104 2239 number~;
#A saved 0 0 100 -inf inf #2a3434 #ffffff #b6fefd;
#X obj 2167 2315 number~;
#A saved 0 0 100 -inf inf #2a3434 #ffffff #b6fefd;
#X obj 2298 2049 bng 19 250 50 0 empty empty empty 0 -10 0 12 #fcfcfc #000000 #000000;
#X obj 2177 2154 bng 19 250 50 0 empty empty empty 0 -10 0 12 #fcfcfc #000000 #000000;
#X msg 2276 2102 0;
#X msg 2308 2102 1;
#X msg 2276 2127 1;
#X msg 2308 2127 0;
#X obj 2498 1930 t b b;
#X obj 2440 1937 t b b;
#X obj 2289 2163 receive~ test;
#X obj 2489 2381 +~;
#X obj 2493 2413 number~;
#A saved 0 0 100 -inf inf #2a3434 #ffffff #b6fefd;
#X obj 2776 2123 sig~ 1;
#X obj 2743 1900 vsl 19 162 0 127 0 0 empty empty empty 0 -9 0 12 #fcfcfc #000000 #000000 0 0;
#X msg 2814 1933 1;
#X obj 2745 2096 t b f;
#X obj 2781 2183 number~;
#A saved 0 0 100 -inf inf #2a3434 #ffffff #b6fefd;
#X obj 2611 2253 *~;
#X obj 2777 2147 rampsmooth~ 20 20;
#X obj 2644 2321 number~;
#A saved 0 0 100 -inf inf #2a3434 #ffffff #b6fefd;
#X obj 2743 2069 scale 0 127 -5 5;
#X obj 2389 2499 pong~ 1 0 44100;
#X obj 2404 2528 number~;
#A saved 0 0 100 -inf inf #2a3434 #ffffff #b6fefd;
#X obj 2493 2459 r samplesize;
#X obj 2556 1844 tgl 19 0 empty empty empty 0 -10 0 12 #fcfcfc #000000 #000000 0 1;
#X obj 2590 1980 sig~;
#X obj 2232 2378 number~;
#A saved 0 0 100 -inf inf #2a3434 #ffffff #b6fefd;
#X obj 2606 2284 delay~ 1 1;
#X obj 2557 1887 sel 0 1;
#X obj 2621 2131 *~ -1;
#X obj 2615 2179 number~;
#A saved 0 0 100 -inf inf #2a3434 #ffffff #b6fefd;
#X obj 2438 2619 zerox~;
#X obj 2438 2593 delta~;
#X obj 2551 1776 r toggleLoop;
#X obj 2883 2070 scale 0 1 -5 5;
#X floatatom 2901 2113 5 0 0 0 - - - 0;
#X obj 2664 1777 r floatFader;
#X obj 707 172 declare -path pong~;
#X connect 0 0 5 1;
#X connect 1 0 7 0;
#X connect 2 0 4 1;
#X connect 3 0 9 0;
#X connect 4 0 109 0;
#X connect 5 0 266 0;
#X connect 6 0 248 0;
#X connect 7 0 2 0;
#X connect 7 1 4 1;
#X connect 8 0 1 0;
#X connect 9 0 0 0;
#X connect 9 0 8 0;
#X connect 10 1 9 1;
#X connect 10 1 5 0;
#X connect 10 1 217 1;
#X connect 11 0 10 0;
#X connect 13 0 220 0;
#X connect 14 0 6 0;
#X connect 15 0 85 0;
#X connect 30 0 224 1;
#X connect 30 0 220 0;
#X connect 32 0 248 0;
#X connect 35 0 34 0;
#X connect 36 0 37 0;
#X connect 38 0 78 0;
#X connect 40 0 41 0;
#X connect 41 0 51 0;
#X connect 41 0 218 0;
#X connect 42 0 41 1;
#X connect 43 0 41 1;
#X connect 44 0 48 0;
#X connect 44 0 76 0;
#X connect 45 0 49 0;
#X connect 45 0 77 0;
#X connect 46 0 81 0;
#X connect 47 0 52 0;
#X connect 48 0 59 0;
#X connect 48 1 43 0;
#X connect 49 0 42 0;
#X connect 49 1 50 0;
#X connect 49 2 58 0;
#X connect 49 2 60 0;
#X connect 50 0 51 0;
#X connect 53 0 56 0;
#X connect 53 0 60 1;
#X connect 54 0 63 0;
#X connect 55 0 54 1;
#X connect 56 0 40 0;
#X connect 57 0 55 0;
#X connect 58 0 55 0;
#X connect 59 0 57 0;
#X connect 59 1 64 0;
#X connect 60 0 46 0;
#X connect 61 0 65 0;
#X connect 62 0 63 1;
#X connect 63 0 53 0;
#X connect 63 0 62 0;
#X connect 64 0 63 0;
#X connect 65 0 54 0;
#X connect 68 0 72 0;
#X connect 68 1 71 0;
#X connect 69 0 68 0;
#X connect 70 0 74 0;
#X connect 71 0 73 0;
#X connect 72 0 70 0;
#X connect 76 0 78 1;
#X connect 77 0 78 1;
#X connect 78 0 39 0;
#X connect 81 0 95 0;
#X connect 84 0 45 0;
#X connect 84 1 44 0;
#X connect 85 0 84 0;
#X connect 86 0 94 1;
#X connect 87 0 115 0;
#X connect 88 0 86 0;
#X connect 89 0 90 0;
#X connect 89 0 96 0;
#X connect 89 0 267 0;
#X connect 90 0 205 0;
#X connect 90 0 209 0;
#X connect 90 0 261 0;
#X connect 91 0 90 1;
#X connect 93 0 87 0;
#X connect 94 0 87 0;
#X connect 95 0 47 0;
#X connect 97 0 89 1;
#X connect 98 0 154 1;
#X connect 99 0 98 0;
#X connect 100 0 98 0;
#X connect 101 0 94 0;
#X connect 101 1 99 0;
#X connect 102 0 93 0;
#X connect 102 0 97 0;
#X connect 102 1 100 0;
#X connect 103 1 101 0;
#X connect 104 0 149 0;
#X connect 105 0 112 0;
#X connect 105 0 213 0;
#X connect 105 0 35 1;
#X connect 106 0 107 0;
#X connect 107 0 109 1;
#X connect 109 0 263 0;
#X connect 109 0 264 1;
#X connect 110 0 111 0;
#X connect 111 0 106 0;
#X connect 112 0 110 1;
#X connect 113 0 89 0;
#X connect 113 0 287 0;
#X connect 114 0 113 0;
#X connect 115 0 114 0;
#X connect 116 0 114 1;
#X connect 117 0 118 0;
#X connect 118 0 116 0;
#X connect 119 0 129 1;
#X connect 120 0 145 0;
#X connect 121 0 119 0;
#X connect 122 0 123 0;
#X connect 122 0 132 0;
#X connect 123 0 125 0;
#X connect 124 0 123 1;
#X connect 125 0 134 1;
#X connect 125 0 135 0;
#X connect 127 0 126 0;
#X connect 127 0 126 1;
#X connect 128 0 120 0;
#X connect 129 0 120 0;
#X connect 130 0 139 0;
#X connect 131 0 140 0;
#X connect 133 0 122 1;
#X connect 134 0 127 0;
#X connect 134 0 136 0;
#X connect 137 0 134 0;
#X connect 138 0 134 0;
#X connect 139 0 129 0;
#X connect 139 1 137 0;
#X connect 140 0 128 0;
#X connect 140 0 133 0;
#X connect 140 1 138 0;
#X connect 141 0 140 0;
#X connect 141 1 139 0;
#X connect 142 0 141 0;
#X connect 143 0 122 0;
#X connect 144 0 143 0;
#X connect 145 0 144 0;
#X connect 146 0 144 1;
#X connect 147 0 148 0;
#X connect 148 0 146 0;
#X connect 149 0 153 0;
#X connect 149 0 103 0;
#X connect 149 1 155 0;
#X connect 149 1 151 1;
#X connect 150 0 154 0;
#X connect 150 0 151 0;
#X connect 151 0 152 0;
#X connect 152 0 156 0;
#X connect 153 0 150 0;
#X connect 154 0 16 1;
#X connect 154 0 16 0;
#X connect 155 0 156 1;
#X connect 156 0 102 0;
#X connect 157 0 167 1;
#X connect 158 0 183 0;
#X connect 159 0 157 0;
#X connect 160 0 161 0;
#X connect 160 0 170 0;
#X connect 161 0 163 0;
#X connect 162 0 161 1;
#X connect 163 0 172 1;
#X connect 163 0 173 0;
#X connect 165 0 164 0;
#X connect 165 0 164 1;
#X connect 166 0 158 0;
#X connect 167 0 158 0;
#X connect 168 0 177 0;
#X connect 169 0 178 0;
#X connect 171 0 160 1;
#X connect 172 0 174 0;
#X connect 172 0 192 1;
#X connect 175 0 172 0;
#X connect 176 0 172 0;
#X connect 177 0 167 0;
#X connect 177 1 175 0;
#X connect 178 0 166 0;
#X connect 178 0 171 0;
#X connect 178 1 176 0;
#X connect 179 1 177 0;
#X connect 180 0 187 0;
#X connect 181 0 160 0;
#X connect 182 0 181 0;
#X connect 183 0 182 0;
#X connect 184 0 182 1;
#X connect 185 0 186 0;
#X connect 186 0 184 0;
#X connect 187 0 179 0;
#X connect 187 0 191 0;
#X connect 187 1 193 0;
#X connect 187 1 189 1;
#X connect 188 0 192 0;
#X connect 188 0 189 0;
#X connect 189 0 190 0;
#X connect 190 0 194 0;
#X connect 191 0 188 0;
#X connect 192 0 165 0;
#X connect 193 0 194 1;
#X connect 194 0 178 0;
#X connect 195 0 200 1;
#X connect 196 0 201 0;
#X connect 197 0 199 1;
#X connect 197 0 216 0;
#X connect 198 0 203 0;
#X connect 199 0 98 1;
#X connect 200 0 223 0;
#X connect 201 0 197 0;
#X connect 201 1 199 1;
#X connect 201 1 214 0;
#X connect 202 0 196 0;
#X connect 202 0 215 0;
#X connect 203 0 195 0;
#X connect 203 0 202 0;
#X connect 203 0 207 0;
#X connect 204 1 203 1;
#X connect 204 1 200 0;
#X connect 205 0 204 0;
#X connect 205 0 210 0;
#X connect 206 0 116 0;
#X connect 206 0 260 0;
#X connect 208 0 149 0;
#X connect 210 0 211 0;
#X connect 210 1 212 0;
#X connect 221 0 13 0;
#X connect 222 0 221 0;
#X connect 223 0 201 1;
#X connect 224 0 225 0;
#X connect 226 0 224 0;
#X connect 227 0 228 0;
#X connect 229 0 259 0;
#X connect 231 0 239 0;
#X connect 234 0 246 0;
#X connect 234 0 247 0;
#X connect 235 0 236 0;
#X connect 236 1 255 0;
#X connect 238 0 237 0;
#X connect 238 0 233 0;
#X connect 239 0 230 0;
#X connect 239 0 233 1;
#X connect 239 0 234 0;
#X connect 239 0 238 0;
#X connect 239 0 250 0;
#X connect 240 0 239 0;
#X connect 242 0 241 0;
#X connect 243 0 244 0;
#X connect 244 0 245 0;
#X connect 247 0 235 1;
#X connect 248 0 108 0;
#X connect 248 0 35 0;
#X connect 248 0 110 0;
#X connect 248 0 11 0;
#X connect 248 0 265 0;
#X connect 248 0 262 0;
#X connect 249 0 248 0;
#X connect 250 0 235 0;
#X connect 251 0 252 0;
#X connect 253 0 251 0;
#X connect 254 0 238 1;
#X connect 256 0 257 0;
#X connect 257 0 231 0;
#X connect 257 1 258 0;
#X connect 258 0 239 0;
#X connect 258 1 244 0;
#X connect 259 0 227 0;
#X connect 260 0 117 0;
#X connect 261 0 198 0;
#X connect 261 0 199 0;
#X connect 262 0 3 0;
#X connect 262 0 4 0;
#X connect 262 0 217 0;
#X connect 264 0 16 1;
#X connect 264 0 16 0;
#X connect 265 0 264 0;
#X connect 266 0 7 1;
#X connect 267 0 268 0;
#X connect 270 0 272 0;
#X connect 271 0 273 0;
#X connect 272 0 274 0;
#X connect 272 0 278 0;
#X connect 273 0 275 0;
#X connect 273 0 284 0;
#X connect 276 0 277 0;
#X connect 277 0 280 0;
#X connect 277 0 282 0;
#X connect 278 0 279 0;
#X connect 278 0 280 1;
#X connect 280 0 285 0;
#X connect 282 0 278 0;
#X connect 282 1 278 1;
#X connect 284 0 281 0;
#X connect 284 0 288 0;
#X connect 284 0 290 1;
#X connect 285 0 284 0;
#X connect 285 1 284 1;
#X connect 288 0 289 0;
#X connect 289 0 290 0;
#X connect 289 0 314 0;
#X connect 290 0 316 0;
#X connect 291 0 289 1;
#X connect 292 0 297 1;
#X connect 293 0 298 0;
#X connect 294 0 296 1;
#X connect 294 0 304 0;
#X connect 295 0 300 0;
#X connect 296 0 315 0;
#X connect 296 0 315 1;
#X connect 297 0 326 0;
#X connect 298 0 294 0;
#X connect 298 1 296 1;
#X connect 298 1 302 0;
#X connect 299 0 293 0;
#X connect 299 0 303 0;
#X connect 300 0 292 0;
#X connect 300 0 299 0;
#X connect 300 0 301 0;
#X connect 305 0 295 0;
#X connect 305 0 296 0;
#X connect 306 0 309 0;
#X connect 306 0 312 0;
#X connect 306 0 316 1;
#X connect 306 0 325 0;
#X connect 307 0 308 0;
#X connect 308 0 332 0;
#X connect 310 0 311 0;
#X connect 312 0 313 0;
#X connect 313 0 328 0;
#X connect 313 0 310 1;
#X connect 317 0 324 0;
#X connect 317 0 330 0;
#X connect 318 0 317 0;
#X connect 319 0 320 0;
#X connect 321 1 319 0;
#X connect 322 0 319 0;
#X connect 322 0 310 1;
#X connect 323 0 322 0;
#X connect 325 0 324 1;
#X connect 326 0 298 1;
#X connect 328 0 329 0;
#X connect 329 0 317 0;
#X connect 330 0 310 0;
#X connect 331 0 332 0;
#X connect 332 1 306 0;
#X connect 333 0 334 0;
#X connect 333 0 335 0;
#X connect 333 0 357 0;
#X connect 336 0 337 0;
#X connect 338 0 336 0;
#X connect 338 0 333 1;
#X connect 338 0 342 0;
#X connect 338 0 297 0;
#X connect 338 0 376 0;
#X connect 338 0 300 1;
#X connect 339 0 354 0;
#X connect 340 0 341 0;
#X connect 340 0 364 0;
#X connect 342 0 333 0;
#X connect 342 0 373 0;
#X connect 343 0 355 0;
#X connect 344 0 346 0;
#X connect 345 0 347 0;
#X connect 345 0 342 1;
#X connect 348 0 350 0;
#X connect 348 0 351 0;
#X connect 349 0 352 0;
#X connect 349 0 353 0;
#X connect 350 0 344 0;
#X connect 351 0 345 0;
#X connect 352 0 344 0;
#X connect 353 0 345 0;
#X connect 354 0 338 0;
#X connect 354 1 348 0;
#X connect 355 0 338 0;
#X connect 355 1 349 0;
#X connect 356 0 344 1;
#X connect 356 0 345 1;
#X connect 357 0 358 0;
#X connect 357 0 368 0;
#X connect 359 0 365 0;
#X connect 360 0 367 0;
#X connect 361 0 362 0;
#X connect 362 0 354 0;
#X connect 362 1 359 0;
#X connect 364 0 357 1;
#X connect 364 0 374 0;
#X connect 365 0 363 0;
#X connect 365 0 364 1;
#X connect 367 0 362 0;
#X connect 368 0 369 0;
#X connect 368 0 305 0;
#X connect 368 0 379 0;
#X connect 370 0 368 2;
#X connect 371 0 372 0;
#X connect 371 0 375 0;
#X connect 372 0 340 0;
#X connect 374 0 366 0;
#X connect 374 0 345 1;
#X connect 375 0 355 0;
#X connect 375 1 354 0;
#X connect 376 0 377 0;
#X connect 376 0 340 0;
#X connect 378 0 300 1;
#X connect 378 0 297 0;
#X connect 379 0 378 0;
#X connect 380 0 371 0;
#X connect 381 0 382 0;
#X connect 381 0 362 0;
#X connect 383 0 381 0;
