#N canvas 0 38 1512 862 12;
#X declare -lib .cyclone;
#X obj 208 88 r instanceCount;
#X obj 496 6 declare -lib .cyclone;
#X msg 52 185 open;
#X obj 365 529 tgl 19 0 empty empty empty 0 -10 0 12 #fcfcfc #000000 #000000 0 1;
#X obj 411 957 dac~;
#X obj 255 152 tgl 19 0 empty empty empty 0 -10 0 12 #fcfcfc #000000 #000000 0 1;
#X obj 366 569 cyclone/play~ test;
#X obj 333 235 cyclone/record~ test;
#X obj 489 606 bng 19 250 50 0 empty empty empty 0 -10 0 12 #fcfcfc #000000 #000000;
#X obj 342 174 adc~;
#X msg 103 207 clear;
#X obj 40 244 cyclone/buffer~ test 1000;
#X msg 491 632 0;
#X obj 575 812 clone player 16;
#X msg 578 719 1;
#X msg 575 775 next \$1;
#X msg 404 520 start;
#X msg 38 310 \; pd dsp \$1;
#X obj 38 280 tgl 19 0 empty empty empty 0 -10 0 12 #fcfcfc #000000 #000000 0 1;
#X obj 102 349 bng 19 250 50 0 empty empty empty 0 -10 0 12 #fcfcfc #000000 #000000;
#X obj 74 576 cyclone/delta~;
#X obj 56 629 cyclone/zerox~;
#X obj 222 656 cyclone/sah~;
#X obj 221 624 cyclone/delta~;
#X obj 411 908 -~;
#X obj 222 688 number~;
#A saved 0 0 100 -inf inf #2a3434 #ffffff #b6fefd;
#X obj 163 479 tabread test;
#X floatatom 209 453 5 0 0 0 - - - 0;
#X floatatom 155 677 5 0 0 0 - - - 0;
#X obj 196 824 need to add switch to this. if less than than zero \, it is min and max is 0 if > 0 it is max and min = 0, f 46;
#X obj 93 904 *~;
#X obj 41 843 number~;
#A saved 0 0 100 -inf inf #2a3434 #ffffff #b6fefd;
#X obj 43 817 cyclone/rampsmooth~ 0 120;
#X obj 393 469 tabread~ test;
#X obj 156 749 number~;
#A saved 0 0 100 -inf inf #2a3434 #ffffff #b6fefd;
#X obj 39 779 cyclone/clip~ 0 1;
#X obj 153 729 -~;
#X obj 92 406 cyclone/count~;
#X obj 935 346 cyclone/sah~;
#X obj 933 265 bng 19 250 50 0 empty empty empty 0 -10 0 12 #fcfcfc #000000 #000000;
#X obj 80 444 number~;
#A saved 0 0 100 -inf inf #2a3434 #ffffff #b6fefd;
#X obj 935 303 click~ 2;
#X obj 807 185 bng 19 250 50 0 empty empty empty 0 -10 0 12 #fcfcfc #000000 #000000;
#X obj 805 208 t b b;
#X obj 797 242 cyclone/count~;
#X obj 935 375 -~ 2;
#X obj 968 434 number~;
#A saved 0 0 100 -inf inf #2a3434 #ffffff #b6fefd;
#X obj 999 645 number~;
#A saved 0 0 100 -inf inf #2a3434 #ffffff #b6fefd;
#X obj 1152 339 osc~ 440;
#X obj 945 500 cyclone/gate~;
#X obj 936 404 *~ -1;
#X obj 795 279 ==~ 0;
#X obj 100 372 t b b;
#X connect 2 0 11 0;
#X connect 3 0 6 0;
#X connect 5 0 7 0;
#X connect 6 0 4 0;
#X connect 6 1 8 0;
#X connect 8 0 12 0;
#X connect 9 0 7 0;
#X connect 10 0 11 0;
#X connect 12 0 3 0;
#X connect 13 0 4 0;
#X connect 14 0 15 0;
#X connect 15 0 13 0;
#X connect 16 0 6 0;
#X connect 18 0 17 0;
#X connect 19 0 52 0;
#X connect 20 0 21 0;
#X connect 21 1 22 1;
#X connect 21 1 35 0;
#X connect 22 0 25 0;
#X connect 22 0 36 0;
#X connect 23 0 22 0;
#X connect 24 0 4 0;
#X connect 26 0 28 0;
#X connect 27 0 26 0;
#X connect 28 0 36 1;
#X connect 30 0 24 1;
#X connect 32 0 30 0;
#X connect 32 0 31 0;
#X connect 33 0 23 0;
#X connect 33 0 24 0;
#X connect 35 0 32 0;
#X connect 36 0 34 0;
#X connect 36 0 35 2;
#X connect 37 0 20 0;
#X connect 37 0 33 0;
#X connect 37 0 40 0;
#X connect 38 0 45 0;
#X connect 39 0 41 0;
#X connect 41 0 38 1;
#X connect 41 0 38 0;
#X connect 42 0 43 0;
#X connect 43 0 44 0;
#X connect 44 0 51 0;
#X connect 45 0 50 0;
#X connect 48 0 49 1;
#X connect 49 0 47 0;
#X connect 50 0 46 0;
#X connect 50 0 49 0;
#X connect 50 0 37 0;
#X connect 51 0 38 0;
#X connect 51 0 38 1;
#X connect 52 0 37 0;
#X connect 52 1 27 0;
