#N canvas 365 38 1136 862 12;
#X declare -lib .cyclone;
#X obj 208 -50 r instanceCount;
#X obj 338 -49 declare -lib .cyclone;
#X msg 52 47 open;
#X obj 234 909 dac~;
#X obj 255 14 tgl 19 0 empty empty empty 0 -10 0 12 #fcfcfc #000000 #000000 0 1;
#X obj 333 97 cyclone/record~ test;
#X msg 103 69 clear;
#X obj 40 106 cyclone/buffer~ test 1000;
#X obj 585 65 clone player 16;
#X msg 588 -28 1;
#X msg 585 28 next \$1;
#X msg 38 172 \; pd dsp \$1;
#X obj 38 142 tgl 19 0 empty empty empty 0 -10 0 12 #fcfcfc #000000 #000000 0 1;
#X obj 73 366 bng 19 250 50 0 empty empty empty 0 -10 0 12 #fcfcfc #000000 #000000;
#X obj 72 441 cyclone/delta~;
#X obj 72 467 cyclone/zerox~;
#X floatatom 778 46 11 0 0 0 - - - 0;
#X obj 73 415 cyclone/count~;
#X obj 336 133 cyclone/number~;
#A saved 0 0 100 -inf inf #2a3434 #ffffff #b6fefd;
#X obj 518 150 cyclone/number~;
#A saved 0 0 100 -inf inf #2a3434 #ffffff #b6fefd;
#X obj 140 551 cyclone/sah~;
#X floatatom 869 47 11 0 0 0 - - - 0;
#X obj 851 83 tabread test;
#X floatatom 880 119 14 0 0 0 - - - 0;
#X obj 57 669 abs~;
#X obj 251 707 cyclone/greaterthan~ 0;
#X obj 252 763 cyclone/gate~ 2;
#X obj 251 734 +~ 1;
#X obj 253 788 *~ -1;
#X msg 829 976 1;
#X obj 141 525 delta~;
#X obj 234 829 -~;
#X obj 39 693 *~;
#X obj 336 30 adc~;
#X obj 39 723 cyclone/rampsmooth~ 0 125;
#X obj 235 476 tabread4~ test;
#N canvas 665 285 665 550 patch 0;
#X obj 89 99 cyclone/delta~;
#X obj 89 125 cyclone/zerox~;
#X obj 90 73 cyclone/count~;
#X obj 157 209 cyclone/sah~;
#X obj 74 324 abs~;
#X obj 268 365 cyclone/greaterthan~ 0;
#X obj 269 421 cyclone/gate~ 2;
#X obj 268 392 +~ 1;
#X obj 270 446 *~ -1;
#X obj 158 183 delta~;
#X obj 251 487 -~;
#X obj 56 351 *~;
#X obj 56 381 cyclone/rampsmooth~ 0 125;
#X obj 91 23 inlet;
#X obj 250 517 outlet~;
#X obj 258 58 inlet;
#X obj 252 134 tabread4~;
#X connect 0 0 1 0;
#X connect 1 1 3 1;
#X connect 1 1 11 0;
#X connect 2 0 0 0;
#X connect 2 0 16 0;
#X connect 3 0 4 0;
#X connect 3 0 5 0;
#X connect 4 0 11 1;
#X connect 5 0 7 0;
#X connect 6 0 8 0;
#X connect 6 1 10 1;
#X connect 7 0 6 0;
#X connect 8 0 10 1;
#X connect 9 0 3 0;
#X connect 10 0 14 0;
#X connect 11 0 12 0;
#X connect 12 0 6 1;
#X connect 13 0 2 0;
#X connect 15 0 16 0;
#X connect 16 0 10 0;
#X connect 16 0 9 0;
#X restore 467 499 pd patch;
#X obj 468 452 bng 19 250 50 0 empty empty empty 0 -10 0 12 #fcfcfc #000000 #000000;
#X msg 521 471 set test;
#X obj 319 631 cyclone/number~;
#A saved 0 0 100 -inf inf #2a3434 #ffffff #b6fefd;
#X obj 563 662 bng 19 250 50 0 empty empty empty 0 -10 0 12 #fcfcfc #000000 #000000;
#X obj 563 711 cyclone/count~;
#X obj 725 772 tabread4~ test;
#X connect 2 0 7 0;
#X connect 4 0 5 0;
#X connect 5 0 18 0;
#X connect 6 0 7 0;
#X connect 9 0 10 0;
#X connect 10 0 8 0;
#X connect 12 0 11 0;
#X connect 13 0 17 0;
#X connect 14 0 15 0;
#X connect 15 1 20 1;
#X connect 15 1 32 0;
#X connect 16 0 22 0;
#X connect 17 0 14 0;
#X connect 17 0 35 0;
#X connect 20 0 24 0;
#X connect 20 0 25 0;
#X connect 20 0 39 0;
#X connect 21 0 22 0;
#X connect 22 0 23 0;
#X connect 24 0 32 1;
#X connect 25 0 27 0;
#X connect 26 0 28 0;
#X connect 26 1 31 1;
#X connect 27 0 26 0;
#X connect 28 0 31 1;
#X connect 30 0 20 0;
#X connect 31 0 3 0;
#X connect 31 0 3 1;
#X connect 32 0 34 0;
#X connect 33 0 5 0;
#X connect 33 1 5 0;
#X connect 34 0 26 1;
#X connect 35 0 31 0;
#X connect 35 0 30 0;
#X connect 36 0 3 0;
#X connect 36 0 3 1;
#X connect 37 0 36 0;
#X connect 38 0 36 1;
#X connect 40 0 41 0;
#X connect 41 0 42 0;
#X connect 42 0 3 1;
#X connect 42 0 3 0;
