#N canvas 0 38 1512 861 12;
#X obj 234 535 vline~;
#X obj 235 605 *~, f 4;
#X obj 341 572 osc~ 440;
#X obj 231 221 tgl 15 0 empty empty empty 17 7 0 10 #fcfcfc #000000 #000000 0 1;
#X obj 110 218 + 1;
#X obj 65 218 int 1;
#X obj 232 442 sel 0 1;
#X msg 296 505 0 25;
#X obj 341 544 mtof;
#X obj 341 498 random 36;
#X obj 268 472 t b b;
#X obj 341 522 + 36;
#X obj 222 472 sel 0;
#X obj 434 31 r instanceCount;
#X obj 435 534 vline~;
#X obj 436 604 *~, f 4;
#X obj 542 571 osc~ 440;
#X obj 432 229 tgl 15 0 empty empty empty 17 7 0 10 #fcfcfc #000000 #000000 0 1;
#X msg 497 504 0 25;
#X obj 542 543 mtof;
#X obj 542 497 random 36;
#X obj 469 471 t b b;
#X obj 542 521 + 36;
#X obj 423 471 sel 0;
#X obj 638 533 vline~;
#X obj 639 603 *~, f 4;
#X obj 745 570 osc~ 440;
#X obj 635 228 tgl 15 0 empty empty empty 17 7 0 10 #fcfcfc #000000 #000000 0 1;
#X obj 636 440 sel 0 1;
#X msg 700 503 0 25;
#X obj 745 542 mtof;
#X obj 745 496 random 36;
#X obj 672 470 t b b;
#X obj 745 520 + 36;
#X obj 626 470 sel 0;
#X obj 839 530 vline~;
#X obj 840 600 *~, f 4;
#X obj 946 567 osc~ 440;
#X obj 836 225 tgl 15 0 empty empty empty 17 7 0 10 #fcfcfc #000000 #000000 0 1;
#X obj 837 437 sel 0 1;
#X msg 901 500 0 25;
#X obj 946 539 mtof;
#X obj 946 493 random 36;
#X obj 873 467 t b b;
#X obj 946 517 + 36;
#X obj 827 467 sel 0;
#X obj 1060 530 vline~;
#X obj 1061 600 *~, f 4;
#X obj 1167 567 osc~ 440;
#X obj 1057 225 tgl 15 0 empty empty empty 17 7 0 10 #fcfcfc #000000 #000000 0 1;
#X obj 1058 437 sel 0 1;
#X msg 1122 500 0 25;
#X obj 1167 539 mtof;
#X obj 1167 493 random 36;
#X obj 1094 467 t b b;
#X obj 1167 517 + 36;
#X obj 1048 467 sel 0;
#X obj 431 202 change;
#X obj 633 201 change;
#X obj 834 198 change;
#X obj 1057 199 change;
#X obj 433 412 spigot;
#X obj 433 388 % 5;
#X obj 506 326 random 5;
#X obj 506 350 + 1;
#X obj 433 441 sel 0 1;
#X obj 516 247 tgl 15 0 empty empty empty 17 7 0 10 #fcfcfc #000000 #000000 0 1;
#X obj 510 298 spigot;
#X obj 516 266 t i i;
#X obj 451 331 sel 0;
#X obj 231 417 spigot;
#X obj 231 393 % 5;
#X obj 304 331 random 5;
#X obj 304 355 + 1;
#X obj 314 252 tgl 15 0 empty empty empty 17 7 0 10 #fcfcfc #000000 #000000 0 1;
#X obj 308 303 spigot;
#X obj 314 271 t i i;
#X obj 249 336 sel 0;
#X msg 249 362 2;
#X msg 451 357 2;
#X obj 636 412 spigot;
#X obj 636 388 % 5;
#X obj 709 326 random 5;
#X obj 709 350 + 1;
#X obj 719 247 tgl 15 0 empty empty empty 17 7 0 10 #fcfcfc #000000 #000000 0 1;
#X obj 713 298 spigot;
#X obj 719 266 t i i;
#X obj 654 331 sel 0;
#X msg 654 357 2;
#X obj 838 412 spigot;
#X obj 838 388 % 5;
#X obj 911 326 random 5;
#X obj 911 350 + 1;
#X obj 921 247 tgl 15 0 empty empty empty 17 7 0 10 #fcfcfc #000000 #000000 0 1;
#X obj 915 298 spigot;
#X obj 921 266 t i i;
#X obj 856 331 sel 0;
#X msg 856 357 2;
#X obj 1059 410 spigot;
#X obj 1059 386 % 5;
#X obj 1132 324 random 5;
#X obj 1132 348 + 1;
#X obj 1142 245 tgl 15 0 empty empty empty 17 7 0 10 #fcfcfc #000000 #000000 0 1;
#X obj 1136 296 spigot;
#X obj 1142 264 t i i;
#X obj 1077 329 sel 0;
#X msg 1077 355 2;
#X obj 90 339 loadbang;
#X obj 311 226 change;
#X obj 515 221 change;
#X obj 718 219 change;
#X obj 916 218 change;
#X obj 1138 219 change;
#X obj 1269 189 loadbang;
#X obj 230 196 t i;
#X obj 66 179 metro 120;
#X obj 64 144 tgl 15 0 empty empty empty 17 7 0 10 #fcfcfc #000000 #000000 0 1;
#X obj 64 89 loadbang;
#X msg 63 118 1;
#X obj 434 66 route 1 2 3 4 5;
#X obj 997 107 route 1 2 3 4 5;
#X msg 1271 219 0;
#X msg 559 46 1 0 sends 0 to 1st outlet;
#X msg 307 415;
#X obj 998 73 r instanceIsGoofy;
#X obj 259 838 *~;
#X obj 275 642 env~;
#X obj 275 666 dbtorms;
#X obj 316 837 *~;
#X msg 276 721 1 \$1;
#X obj 276 752 /;
#X obj 276 778 min 1;
#X obj 275 694 + 0.5;
#X obj 277 803 lop~ 5;
#X obj 259 862 dac~;
#X msg 234 505 1 10;
#X msg 435 504 1 10;
#X msg 638 503 1 10;
#X msg 839 500 1 10;
#X msg 1060 500 1 10;
#X connect 0 0 1 0;
#X connect 1 0 126 0;
#X connect 1 0 125 0;
#X connect 1 0 128 0;
#X connect 2 0 1 1;
#X connect 3 0 12 0;
#X connect 3 0 70 1;
#X connect 4 0 5 1;
#X connect 5 0 4 0;
#X connect 5 0 62 0;
#X connect 5 0 71 0;
#X connect 5 0 81 0;
#X connect 5 0 90 0;
#X connect 5 0 99 0;
#X connect 6 0 7 0;
#X connect 6 0 75 0;
#X connect 6 1 10 0;
#X connect 7 0 0 0;
#X connect 8 0 2 0;
#X connect 9 0 11 0;
#X connect 10 0 135 0;
#X connect 10 1 9 0;
#X connect 11 0 8 0;
#X connect 12 0 7 0;
#X connect 13 0 119 0;
#X connect 14 0 15 0;
#X connect 15 0 126 0;
#X connect 15 0 125 0;
#X connect 15 0 128 0;
#X connect 16 0 15 1;
#X connect 17 0 61 1;
#X connect 17 0 23 0;
#X connect 18 0 14 0;
#X connect 19 0 16 0;
#X connect 20 0 22 0;
#X connect 21 0 136 0;
#X connect 21 1 20 0;
#X connect 22 0 19 0;
#X connect 23 0 18 0;
#X connect 24 0 25 0;
#X connect 25 0 126 0;
#X connect 25 0 125 0;
#X connect 25 0 128 0;
#X connect 26 0 25 1;
#X connect 27 0 34 0;
#X connect 27 0 80 1;
#X connect 28 0 85 0;
#X connect 28 0 29 0;
#X connect 28 1 32 0;
#X connect 29 0 24 0;
#X connect 30 0 26 0;
#X connect 31 0 33 0;
#X connect 32 0 137 0;
#X connect 32 1 31 0;
#X connect 33 0 30 0;
#X connect 34 0 29 0;
#X connect 35 0 36 0;
#X connect 36 0 125 0;
#X connect 36 0 128 0;
#X connect 37 0 36 1;
#X connect 38 0 45 0;
#X connect 38 0 89 1;
#X connect 39 0 40 0;
#X connect 39 0 94 0;
#X connect 39 1 43 0;
#X connect 40 0 35 0;
#X connect 41 0 37 0;
#X connect 42 0 44 0;
#X connect 43 0 138 0;
#X connect 43 1 42 0;
#X connect 44 0 41 0;
#X connect 45 0 40 0;
#X connect 46 0 47 0;
#X connect 47 0 126 0;
#X connect 47 0 125 0;
#X connect 47 0 128 0;
#X connect 48 0 47 1;
#X connect 49 0 56 0;
#X connect 49 0 98 1;
#X connect 50 0 51 0;
#X connect 50 0 103 0;
#X connect 50 1 54 0;
#X connect 51 0 46 0;
#X connect 52 0 48 0;
#X connect 53 0 55 0;
#X connect 54 0 139 0;
#X connect 54 1 53 0;
#X connect 55 0 52 0;
#X connect 56 0 51 0;
#X connect 57 0 17 0;
#X connect 58 0 27 0;
#X connect 59 0 38 0;
#X connect 60 0 49 0;
#X connect 61 0 65 0;
#X connect 62 0 61 0;
#X connect 63 0 64 0;
#X connect 64 0 62 1;
#X connect 65 0 18 0;
#X connect 65 0 67 0;
#X connect 65 1 21 0;
#X connect 66 0 68 0;
#X connect 67 0 63 0;
#X connect 68 0 69 0;
#X connect 68 1 67 1;
#X connect 69 0 79 0;
#X connect 70 0 6 0;
#X connect 71 0 70 0;
#X connect 71 0 123 0;
#X connect 72 0 73 0;
#X connect 73 0 71 1;
#X connect 74 0 76 0;
#X connect 75 0 72 0;
#X connect 76 0 77 0;
#X connect 76 1 75 1;
#X connect 77 0 78 0;
#X connect 78 0 71 1;
#X connect 79 0 62 1;
#X connect 80 0 28 0;
#X connect 81 0 80 0;
#X connect 82 0 83 0;
#X connect 83 0 81 1;
#X connect 84 0 86 0;
#X connect 85 0 82 0;
#X connect 86 0 87 0;
#X connect 86 1 85 1;
#X connect 87 0 88 0;
#X connect 88 0 81 1;
#X connect 89 0 39 0;
#X connect 90 0 89 0;
#X connect 91 0 92 0;
#X connect 92 0 90 1;
#X connect 93 0 95 0;
#X connect 94 0 91 0;
#X connect 95 0 96 0;
#X connect 95 1 94 1;
#X connect 96 0 97 0;
#X connect 97 0 90 1;
#X connect 98 0 50 0;
#X connect 99 0 98 0;
#X connect 100 0 101 0;
#X connect 101 0 99 1;
#X connect 102 0 104 0;
#X connect 103 0 100 0;
#X connect 104 0 105 0;
#X connect 104 1 103 1;
#X connect 105 0 106 0;
#X connect 106 0 99 1;
#X connect 107 0 106 0;
#X connect 107 0 97 0;
#X connect 107 0 88 0;
#X connect 107 0 79 0;
#X connect 107 0 78 0;
#X connect 108 0 74 0;
#X connect 109 0 66 0;
#X connect 110 0 84 0;
#X connect 111 0 93 0;
#X connect 112 0 102 0;
#X connect 113 0 121 0;
#X connect 114 0 3 0;
#X connect 115 0 5 0;
#X connect 116 0 115 0;
#X connect 117 0 118 0;
#X connect 118 0 116 0;
#X connect 119 0 114 0;
#X connect 119 1 57 0;
#X connect 119 2 58 0;
#X connect 119 3 59 0;
#X connect 119 4 60 0;
#X connect 120 0 108 0;
#X connect 120 1 109 0;
#X connect 120 2 110 0;
#X connect 120 3 111 0;
#X connect 120 4 112 0;
#X connect 121 0 74 0;
#X connect 121 0 66 0;
#X connect 121 0 84 0;
#X connect 121 0 93 0;
#X connect 121 0 102 0;
#X connect 124 0 120 0;
#X connect 125 0 134 0;
#X connect 126 0 127 0;
#X connect 127 0 132 0;
#X connect 128 0 134 1;
#X connect 129 0 130 0;
#X connect 130 0 131 0;
#X connect 131 0 133 0;
#X connect 132 0 129 0;
#X connect 133 0 125 1;
#X connect 133 0 128 1;
#X connect 135 0 0 0;
#X connect 136 0 14 0;
#X connect 137 0 24 0;
#X connect 138 0 35 0;
#X connect 139 0 46 0;
