#N canvas 796 38 716 540 12;
#X declare -path counter;
#X declare -lib .cyclone;
#X obj 208 88 r instanceCount;
#X obj 208 123 route 1 2 3 4 5;
#X msg 175 287 400;
#X msg 215 287 500;
#X msg 255 285 600;
#X msg 295 285 700;
#X msg 337 285 800;
#X obj 159 228 bng 15 250 50 0 empty empty empty 17 7 0 10 #fcfcfc #000000 #000000;
#X obj 259 222 bng 15 250 50 0 empty empty empty 17 7 0 10 #fcfcfc #000000 #000000;
#X obj 213 222 bng 15 250 50 0 empty empty empty 17 7 0 10 #fcfcfc #000000 #000000;
#X obj 304 225 bng 15 250 50 0 empty empty empty 17 7 0 10 #fcfcfc #000000 #000000;
#X obj 350 232 bng 15 250 50 0 empty empty empty 17 7 0 10 #fcfcfc #000000 #000000;
#X obj 192 349 osc~ 400;
#X obj 201 417 dac~;
#X obj 465 169 bng 15 250 50 0 empty empty empty 17 7 0 10 #fcfcfc #000000 #000000;
#X obj 465 307 * 10;
#X floatatom 450 387 5 0 0 0 - - - 0;
#X obj 429 57 declare -path counter;
#X obj 439 100 declare -lib .cyclone;
#X obj 465 191 counter;
#X connect 0 0 14 0;
#X connect 1 0 7 0;
#X connect 1 1 9 0;
#X connect 1 2 8 0;
#X connect 1 3 10 0;
#X connect 1 4 11 0;
#X connect 2 0 12 0;
#X connect 3 0 12 0;
#X connect 4 0 12 0;
#X connect 5 0 12 0;
#X connect 6 0 12 0;
#X connect 7 0 2 0;
#X connect 8 0 4 0;
#X connect 9 0 3 0;
#X connect 10 0 5 0;
#X connect 11 0 6 0;
#X connect 12 0 13 0;
#X connect 12 0 13 1;
#X connect 14 0 19 0;
#X connect 15 0 16 0;
#X connect 15 0 12 0;
#X connect 19 0 15 0;
